<svg width="22" height="17" viewBox="0 0 22 17" fill="none" xmlns="http://www.w3.org/2000/svg">
<path d="M19.207 1.01562L19.7227 3.9375H18.3047L18.0898 2.60547L10.3125 3.9375H2.14844L19.207 1.01562ZM1.375 4.625H2.0625H3.09375H19.9375H20.625V5.3125V14.9375V15.625H19.9375H2.0625H1.375V14.9375V6.34375V5.3125V4.625ZM4.76953 6C4.79818 6.14323 4.8125 6.25781 4.8125 6.34375C4.8125 6.83073 4.64062 7.24609 4.29688 7.58984C3.98177 7.90495 3.58073 8.0625 3.09375 8.0625C3.00781 8.0625 2.89323 8.04818 2.75 8.01953V12.2305C2.89323 12.2018 3.00781 12.1875 3.09375 12.1875C3.58073 12.1875 3.98177 12.3594 4.29688 12.7031C4.64062 13.0182 4.8125 13.4193 4.8125 13.9062C4.8125 13.9922 4.79818 14.1068 4.76953 14.25H17.2305C17.2018 14.1068 17.1875 13.9922 17.1875 13.9062C17.1875 13.4193 17.3451 13.0182 17.6602 12.7031C18.0039 12.3594 18.4193 12.1875 18.9062 12.1875C18.9922 12.1875 19.1068 12.2018 19.25 12.2305V8.01953C19.1068 8.04818 18.9922 8.0625 18.9062 8.0625C18.4193 8.0625 18.0039 7.90495 17.6602 7.58984C17.3451 7.24609 17.1875 6.83073 17.1875 6.34375C17.1875 6.25781 17.2018 6.14323 17.2305 6H4.76953ZM8.55078 7.71875C9.23828 7.03125 10.0547 6.6875 11 6.6875C11.9453 6.6875 12.7474 7.03125 13.4062 7.71875C14.0938 8.3776 14.4375 9.17969 14.4375 10.125C14.4375 11.0703 14.0938 11.8867 13.4062 12.5742C12.7474 13.2331 11.9453 13.5625 11 13.5625C10.0547 13.5625 9.23828 13.2331 8.55078 12.5742C7.89193 11.8867 7.5625 11.0703 7.5625 10.125C7.5625 9.17969 7.89193 8.3776 8.55078 7.71875ZM12.4609 8.66406C12.0599 8.26302 11.5729 8.0625 11 8.0625C10.4271 8.0625 9.9401 8.26302 9.53906 8.66406C9.13802 9.0651 8.9375 9.55208 8.9375 10.125C8.9375 10.6979 9.13802 11.1849 9.53906 11.5859C9.9401 11.987 10.4271 12.1875 11 12.1875C11.5729 12.1875 12.0599 11.987 12.4609 11.5859C12.862 11.1849 13.0625 10.6979 13.0625 10.125C13.0625 9.55208 12.862 9.0651 12.4609 8.66406Z" fill="#202224"/>
<path d="M19.207 1.01562L19.6994 0.928732L19.613 0.438813L19.1226 0.522802L19.207 1.01562ZM19.7227 3.9375V4.4375H20.3186L20.215 3.85061L19.7227 3.9375ZM18.3047 3.9375L17.8111 4.01712L17.8789 4.4375H18.3047V3.9375ZM18.0898 2.60547L18.5835 2.52585L18.5031 2.02741L18.0054 2.11264L18.0898 2.60547ZM10.3125 3.9375V4.4375H10.355L10.3969 4.43032L10.3125 3.9375ZM2.14844 3.9375L2.06402 3.44468L2.14844 4.4375V3.9375ZM1.375 4.625V4.125H0.875V4.625H1.375ZM20.625 4.625H21.125V4.125H20.625V4.625ZM20.625 15.625V16.125H21.125V15.625H20.625ZM1.375 15.625H0.875V16.125H1.375V15.625ZM4.76953 6V5.5H4.15963L4.27924 6.09806L4.76953 6ZM4.29688 7.58984L3.94332 7.23629L4.29688 7.58984ZM2.75 8.01953L2.84806 7.52924L2.25 7.40963V8.01953H2.75ZM2.75 12.2305H2.25V12.8404L2.84806 12.7208L2.75 12.2305ZM4.29688 12.7031L3.9283 13.041L3.94299 13.057L3.95901 13.0717L4.29688 12.7031ZM4.76953 14.25L4.27924 14.1519L4.15963 14.75H4.76953V14.25ZM17.2305 14.25V14.75H17.8404L17.7208 14.1519L17.2305 14.25ZM17.6602 12.7031L17.3066 12.3496L17.6602 12.7031ZM19.25 12.2305L19.1519 12.7208L19.75 12.8404V12.2305H19.25ZM19.25 8.01953H19.75V7.40963L19.1519 7.52924L19.25 8.01953ZM17.6602 7.58984L17.2916 7.92771L17.3063 7.94373L17.3223 7.95842L17.6602 7.58984ZM17.2305 6L17.7208 6.09806L17.8404 5.5H17.2305V6ZM8.55078 7.71875L8.19723 7.3652L8.55078 7.71875ZM13.4062 7.71875L13.0453 8.0647L13.0526 8.07238L13.0603 8.07974L13.4062 7.71875ZM13.4062 12.5742L13.0527 12.2207L13.4062 12.5742ZM8.55078 12.5742L8.18979 12.9202L8.19715 12.9279L8.20483 12.9352L8.55078 12.5742ZM12.4609 8.66406L12.1074 9.01762L12.4609 8.66406ZM9.53906 8.66406L9.89262 9.01762L9.53906 8.66406ZM9.53906 11.5859L9.18551 11.9395L9.53906 11.5859ZM12.4609 11.5859L12.8145 11.9395L12.4609 11.5859ZM18.7146 1.10252L19.2303 4.02439L20.215 3.85061L19.6994 0.928732L18.7146 1.10252ZM19.7227 3.4375H18.3047V4.4375H19.7227V3.4375ZM18.7983 3.85788L18.5835 2.52585L17.5962 2.68508L17.8111 4.01712L18.7983 3.85788ZM18.0054 2.11264L10.2281 3.44468L10.3969 4.43032L18.1743 3.09829L18.0054 2.11264ZM10.3125 3.4375H2.14844V4.4375H10.3125V3.4375ZM2.23285 4.43032L19.2914 1.50845L19.1226 0.522802L2.06402 3.44468L2.23285 4.43032ZM1.375 5.125H2.0625V4.125H1.375V5.125ZM2.0625 5.125H3.09375V4.125H2.0625V5.125ZM3.09375 5.125H19.9375V4.125H3.09375V5.125ZM19.9375 5.125H20.625V4.125H19.9375V5.125ZM20.125 4.625V5.3125H21.125V4.625H20.125ZM20.125 5.3125V14.9375H21.125V5.3125H20.125ZM20.125 14.9375V15.625H21.125V14.9375H20.125ZM20.625 15.125H19.9375V16.125H20.625V15.125ZM19.9375 15.125H2.0625V16.125H19.9375V15.125ZM2.0625 15.125H1.375V16.125H2.0625V15.125ZM1.875 15.625V14.9375H0.875V15.625H1.875ZM1.875 14.9375V6.34375H0.875V14.9375H1.875ZM1.875 6.34375V5.3125H0.875V6.34375H1.875ZM1.875 5.3125V4.625H0.875V5.3125H1.875ZM4.27924 6.09806C4.30524 6.22804 4.3125 6.3057 4.3125 6.34375H5.3125C5.3125 6.20993 5.29112 6.05842 5.25982 5.90194L4.27924 6.09806ZM4.3125 6.34375C4.3125 6.69838 4.19312 6.98649 3.94332 7.23629L4.65043 7.9434C5.08813 7.5057 5.3125 6.96308 5.3125 6.34375H4.3125ZM3.94332 7.23629C3.73115 7.44846 3.46167 7.5625 3.09375 7.5625V8.5625C3.69979 8.5625 4.23239 8.36143 4.65043 7.9434L3.94332 7.23629ZM3.09375 7.5625C3.0557 7.5625 2.97804 7.55524 2.84806 7.52924L2.65194 8.50982C2.80842 8.54112 2.95993 8.5625 3.09375 8.5625V7.5625ZM2.25 8.01953V12.2305H3.25V8.01953H2.25ZM2.84806 12.7208C2.97804 12.6948 3.0557 12.6875 3.09375 12.6875V11.6875C2.95993 11.6875 2.80842 11.7089 2.65194 11.7402L2.84806 12.7208ZM3.09375 12.6875C3.44759 12.6875 3.71254 12.8056 3.9283 13.041L4.66545 12.3653C4.251 11.9131 3.71386 11.6875 3.09375 11.6875V12.6875ZM3.95901 13.0717C4.19439 13.2875 4.3125 13.5524 4.3125 13.9062H5.3125C5.3125 13.2861 5.08686 12.749 4.63474 12.3345L3.95901 13.0717ZM4.3125 13.9062C4.3125 13.9443 4.30524 14.022 4.27924 14.1519L5.25982 14.3481C5.29112 14.1916 5.3125 14.0401 5.3125 13.9062H4.3125ZM4.76953 14.75H17.2305V13.75H4.76953V14.75ZM17.7208 14.1519C17.6948 14.022 17.6875 13.9443 17.6875 13.9062H16.6875C16.6875 14.0401 16.7089 14.1916 16.7402 14.3481L17.7208 14.1519ZM17.6875 13.9062C17.6875 13.5383 17.8015 13.2689 18.0137 13.0567L17.3066 12.3496C16.8886 12.7676 16.6875 13.3002 16.6875 13.9062H17.6875ZM18.0137 13.0567C18.2635 12.8069 18.5516 12.6875 18.9062 12.6875V11.6875C18.2869 11.6875 17.7443 11.9119 17.3066 12.3496L18.0137 13.0567ZM18.9062 12.6875C18.9443 12.6875 19.022 12.6948 19.1519 12.7208L19.3481 11.7402C19.1916 11.7089 19.0401 11.6875 18.9062 11.6875V12.6875ZM19.75 12.2305V8.01953H18.75V12.2305H19.75ZM19.1519 7.52924C19.022 7.55524 18.9443 7.5625 18.9062 7.5625V8.5625C19.0401 8.5625 19.1916 8.54112 19.3481 8.50982L19.1519 7.52924ZM18.9062 7.5625C18.5383 7.5625 18.2452 7.44781 17.998 7.22127L17.3223 7.95842C17.7627 8.36209 18.3003 8.5625 18.9062 8.5625V7.5625ZM18.0287 7.25198C17.8022 7.00484 17.6875 6.71173 17.6875 6.34375H16.6875C16.6875 6.94973 16.8879 7.48734 17.2916 7.92771L18.0287 7.25198ZM17.6875 6.34375C17.6875 6.3057 17.6948 6.22804 17.7208 6.09806L16.7402 5.90194C16.7089 6.05842 16.6875 6.20993 16.6875 6.34375H17.6875ZM17.2305 5.5H4.76953V6.5H17.2305V5.5ZM8.90433 8.0723C9.50106 7.47558 10.1915 7.1875 11 7.1875V6.1875C9.91791 6.1875 8.9755 6.58692 8.19723 7.3652L8.90433 8.0723ZM11 7.1875C11.8079 7.1875 12.4799 7.47479 13.0453 8.0647L13.7672 7.3728C13.0149 6.58771 12.0827 6.1875 11 6.1875V7.1875ZM13.0603 8.07974C13.6502 8.64507 13.9375 9.31711 13.9375 10.125H14.9375C14.9375 9.04226 14.5373 8.11013 13.7522 7.35776L13.0603 8.07974ZM13.9375 10.125C13.9375 10.9335 13.6494 11.6239 13.0527 12.2207L13.7598 12.9278C14.5381 12.1495 14.9375 11.2071 14.9375 10.125H13.9375ZM13.0527 12.2207C12.4891 12.7842 11.8149 13.0625 11 13.0625V14.0625C12.0758 14.0625 13.0057 13.6819 13.7598 12.9278L13.0527 12.2207ZM11 13.0625C10.1847 13.0625 9.49191 12.7836 8.89673 12.2132L8.20483 12.9352C8.98465 13.6825 9.92471 14.0625 11 14.0625V13.0625ZM8.91178 12.2283C8.3414 11.6331 8.0625 10.9403 8.0625 10.125H7.0625C7.0625 11.2003 7.44246 12.1403 8.18979 12.9202L8.91178 12.2283ZM8.0625 10.125C8.0625 9.31013 8.34077 8.63587 8.90433 8.0723L8.19723 7.3652C7.44309 8.11934 7.0625 9.04924 7.0625 10.125H8.0625ZM12.8145 8.31051C12.3186 7.81463 11.704 7.5625 11 7.5625V8.5625C11.4418 8.5625 11.8012 8.71141 12.1074 9.01762L12.8145 8.31051ZM11 7.5625C10.296 7.5625 9.68138 7.81463 9.18551 8.31051L9.89262 9.01762C10.1988 8.71141 10.5582 8.5625 11 8.5625V7.5625ZM9.18551 8.31051C8.68963 8.80638 8.4375 9.42099 8.4375 10.125H9.4375C9.4375 9.68318 9.58641 9.32382 9.89262 9.01762L9.18551 8.31051ZM8.4375 10.125C8.4375 10.829 8.68963 11.4436 9.18551 11.9395L9.89262 11.2324C9.58641 10.9262 9.4375 10.5668 9.4375 10.125H8.4375ZM9.18551 11.9395C9.68138 12.4354 10.296 12.6875 11 12.6875V11.6875C10.5582 11.6875 10.1988 11.5386 9.89262 11.2324L9.18551 11.9395ZM11 12.6875C11.704 12.6875 12.3186 12.4354 12.8145 11.9395L12.1074 11.2324C11.8012 11.5386 11.4418 11.6875 11 11.6875V12.6875ZM12.8145 11.9395C13.3104 11.4436 13.5625 10.829 13.5625 10.125H12.5625C12.5625 10.5668 12.4136 10.9262 12.1074 11.2324L12.8145 11.9395ZM13.5625 10.125C13.5625 9.42099 13.3104 8.80638 12.8145 8.31051L12.1074 9.01762C12.4136 9.32382 12.5625 9.68318 12.5625 10.125H13.5625Z" fill="black"/>
</svg>
