<svg width="1219" height="454" viewBox="0 0 1219 454" fill="none" xmlns="http://www.w3.org/2000/svg">
<g filter="url(#filter0_d_213_11820)">
<rect x="48" y="48" width="1141" height="346" rx="14" fill="#4880FF"/>
</g>
<mask id="mask0_213_11820" style="mask-type:luminance" maskUnits="userSpaceOnUse" x="48" y="48" width="1141" height="346">
<rect x="48" y="48" width="1141" height="346" rx="14" fill="white"/>
</mask>
<g mask="url(#mask0_213_11820)">
<g opacity="0.1">
<g opacity="0.3">
<path d="M125.183 580.815C162.855 606.115 187.442 642.402 209.028 674.444C233.531 710.731 254.784 742.108 287.956 747.184C291.04 747.684 294.207 747.85 297.374 747.85C322.961 747.85 353.382 733.119 391.971 702.076C420.892 678.772 444.978 657.633 466.231 638.907C511.071 599.374 543.492 570.827 579.331 561.589C615.919 552.102 656.092 562.089 717.934 595.962C768.441 623.676 828.7 642.735 883.124 648.228C908.461 650.808 931.465 650.309 949.717 646.647C968.97 642.818 982.472 635.911 989.723 626.007C999.641 612.441 1002.06 587.223 956.968 544.029C903.044 492.345 841.702 486.103 776.776 479.528C733.77 475.2 689.263 470.623 644.34 452.563C593.5 432.172 549.41 396.718 509.488 344.368C479.983 305.668 445.562 287.358 409.807 291.436C385.47 294.183 361.55 306.999 338.713 329.387C315.793 352.025 295.124 383.235 277.454 422.185C264.286 451.065 249.784 465.879 232.865 467.377C196.276 470.623 153.937 409.202 113.098 349.778C92.678 320.066 71.5916 289.439 51.5054 267.467C41.0873 256.065 31.5859 247.659 22.668 242.083V245.162C50.7553 263.638 81.2597 307.915 111.014 351.193C131.517 380.988 152.77 411.865 173.189 434.336C195.026 458.305 213.695 470.04 230.114 470.04C231.114 470.04 232.115 469.957 233.115 469.874C250.951 468.292 266.203 453.062 279.705 423.267C297.291 384.567 317.71 353.606 340.463 331.218C362.883 309.163 386.303 296.596 410.057 293.933C444.812 290.021 478.566 307.998 507.487 345.949C547.66 398.715 592.166 434.336 643.34 454.893C688.596 473.12 733.27 477.614 776.442 482.025C840.952 488.6 901.877 494.758 955.218 545.86C999.058 587.889 997.057 611.858 987.723 624.592C974.054 643.151 935.048 651.058 883.374 645.815C829.283 640.322 769.358 621.346 719.101 593.798C656.675 559.592 616.003 549.605 578.664 559.259C542.242 568.664 509.654 597.377 464.564 637.159C443.311 655.885 419.308 677.024 390.387 700.245C347.548 734.7 315.126 748.849 288.289 744.771C256.201 739.944 235.282 708.983 211.028 673.113C189.275 640.904 164.605 604.451 126.516 578.817C94.9283 557.594 64.8407 546.941 36.7533 546.941C32.0026 546.941 27.3353 547.274 22.668 547.857V550.354C54.2558 546.109 88.6774 556.346 125.183 580.815Z" fill="white"/>
<path fill-rule="evenodd" clip-rule="evenodd" d="M306.625 701.909C304.208 701.909 301.874 701.66 299.624 701.077C279.204 696 262.952 681.602 252.617 659.38C242.199 636.743 238.698 607.53 242.616 574.822C246.199 545.36 256.618 516.148 272.953 490.347C331.045 398.382 379.302 347.947 416.39 340.457C428.309 338.043 439.227 340.124 448.645 346.698C483.966 371.199 507.005 395.049 527.325 416.084L528.073 416.858L528.255 417.047C559.673 449.582 584.519 475.312 638.922 490.181C673.344 499.586 689.596 508.241 688.513 516.73C687.679 523.305 676.011 528.548 653.758 532.377C632.171 536.039 601 538.286 563.661 538.785C535.491 539.201 506.237 550.104 474.149 572.326C446.145 591.801 419.641 617.185 396.221 639.656C361.633 672.863 331.378 701.909 306.625 701.909ZM275.12 491.679C259.035 517.146 248.7 546.026 245.199 575.155C241.365 607.364 244.782 636.077 255.034 658.299C264.952 679.854 280.621 693.836 300.29 698.663C302.374 699.163 304.541 699.412 306.708 699.412C330.377 699.412 360.297 670.701 394.467 637.912L394.471 637.908C417.891 615.354 444.478 589.886 472.732 570.328C505.236 547.857 534.991 536.705 563.661 536.288C600.917 535.789 631.921 533.542 653.341 529.88C680.928 525.136 685.679 519.394 686.096 516.397C687.262 506.91 653.091 496.506 638.339 492.511C583.164 477.364 558.077 451.397 526.406 418.523L526.063 418.168C505.728 397.115 482.701 373.276 447.311 348.696C440.811 344.202 433.643 341.955 425.808 341.955C422.975 341.955 419.974 342.287 416.974 342.87C380.635 350.277 332.878 400.296 275.12 491.679Z" fill="white"/>
<path d="M1187.33 566.583C1181.42 560.424 1174.67 554.099 1167 547.774C1137.83 523.721 1100.82 503.913 1056.98 488.849C1002.22 470.04 936.632 458.555 862.038 454.726C819.365 452.563 737.52 444.989 668.427 418.44C595.667 390.559 555.328 349.362 548.66 296.014C540.909 234.259 548.493 195.975 572.58 175.418C598.917 152.947 646.591 151.948 718.267 172.589C768.025 186.904 808.28 206.545 840.618 222.358C872.54 238.005 897.793 250.322 920.296 252.486C944.717 254.816 963.803 244.912 982.139 220.361C993.807 204.714 1003.06 189.9 1011.23 176.833C1027.65 150.45 1039.56 131.391 1058.98 124.317C1079.49 116.827 1107.24 123.152 1151.91 145.457C1164.66 151.782 1176.42 158.856 1187.33 166.18V163.184C1176.75 156.11 1165.33 149.368 1153.08 143.21C1107.74 120.572 1079.4 114.247 1058.15 121.904C1037.9 129.311 1025.89 148.619 1009.14 175.418C1001.06 188.402 991.807 203.133 980.222 218.779C942.55 269.298 904.627 250.738 841.785 220.028C809.364 204.131 768.941 184.407 719.018 170.092C646.424 149.285 598 150.367 570.996 173.421C546.243 194.56 538.408 233.594 546.243 296.263C553.077 350.61 593.916 392.473 667.594 420.77C737.02 447.403 819.199 454.976 861.955 457.223C936.299 460.968 1001.56 472.454 1056.07 491.18C1099.57 506.16 1136.33 525.802 1165.25 549.605C1173.75 556.596 1181.08 563.587 1187.33 570.245V566.583V566.583Z" fill="white"/>
<path d="M1187.33 513.568C1169.66 500.335 1148.41 487.018 1124.32 474.451C1055.9 438.664 975.22 413.779 897.292 404.458C818.364 394.97 760.772 384.567 716.099 371.583C659.008 355.104 623.003 334.548 606 308.914C594.498 291.519 591.998 271.462 598.416 249.157C603.25 232.678 612.084 221.776 625.503 215.867C670.926 195.726 758.022 237.922 834.866 275.124C862.953 288.773 889.541 301.59 912.127 310.412C950.216 325.309 973.636 328.638 990.472 321.398C1006.72 314.407 1016.06 298.261 1028.89 275.873C1036.64 262.39 1045.4 247.16 1057.73 230.348C1070.9 212.371 1087.57 202.966 1107.32 202.384C1134.33 201.635 1163.58 217.531 1187.33 235.009V231.929C1150.41 205.047 1123.82 199.471 1107.32 199.887C1086.82 200.47 1069.48 210.207 1055.81 228.85C1043.4 245.745 1034.64 261.142 1026.81 274.624C1001.64 318.318 990.138 338.293 913.044 308.081C890.541 299.259 864.037 286.443 835.95 272.877C758.605 235.425 670.926 192.979 624.503 213.619C610.501 219.778 600.916 231.596 595.999 248.575C589.331 271.545 591.915 292.352 603.833 310.412C621.252 336.462 657.674 357.352 715.432 373.997C760.272 386.98 818.03 397.384 897.042 406.871C974.636 416.193 1054.98 440.994 1123.16 476.615C1147.58 489.432 1169.41 503.164 1187.33 516.814V513.568Z" fill="white"/>
<path d="M1187.33 475.866C1139.83 434.669 1075.4 418.19 1024.89 405.373C975.886 392.889 940.548 383.901 944.382 359.599C945.465 352.524 955.3 353.024 972.552 354.522C988.555 355.853 1008.39 357.601 1027.14 351.276C1049.31 343.786 1064.57 326.891 1073.73 299.592C1080.15 280.45 1090.4 269.464 1104.07 267.134C1129.07 262.806 1161.91 287.108 1187.42 311.244V307.749C1186.75 307.166 1186.17 306.5 1185.5 305.918C1151.83 274.957 1124.32 261.058 1103.65 264.637C1088.99 267.134 1078.15 278.619 1071.4 298.76C1051.23 358.766 1004.06 354.688 972.802 352.025C955.8 350.527 943.465 349.528 941.965 359.266C940.048 371.583 946.799 381.071 963.468 388.978C978.303 396.052 999.64 401.545 1024.31 407.787C1075.23 420.77 1140.16 437.332 1187.42 479.278V475.866H1187.33Z" fill="white"/>
<path d="M1187.33 453.728C1171.17 443.574 1153.41 429.176 1138.16 413.696C1115.32 390.476 1101.74 369.003 1099.99 353.107C1099.07 344.535 1101.66 337.71 1107.82 332.883C1129.49 315.905 1164.83 344.202 1187.33 366.756V363.177C1182.67 358.6 1177.58 353.856 1172.25 349.362C1159.83 338.958 1148.33 331.801 1138.24 328.139C1125.41 323.478 1114.57 324.394 1106.24 330.969C1099.41 336.295 1096.49 343.869 1097.49 353.44C1100.99 385.898 1149.75 433.42 1187.33 456.724V453.728V453.728Z" fill="white"/>
<path fill-rule="evenodd" clip-rule="evenodd" d="M901.901 353.853C902.189 354.057 902.349 354.171 902.376 354.189C912.294 361.596 915.711 367.672 912.794 372.332C909.461 377.243 898.709 379.157 884.54 379.157C865.121 379.157 839.117 375.578 816.281 371.001C760.689 359.932 707.682 341.122 674.51 320.732C637.172 297.761 624.503 272.877 637.922 248.741C641.506 242.249 647.506 238.088 655.674 236.257C682.011 230.348 731.602 248.491 802.945 290.021C853.082 319.148 896.882 350.284 901.901 353.853ZM879.79 376.494C902.876 377.076 909.044 373.165 910.627 370.834C913.294 366.756 906.793 360.681 900.876 356.27C898.709 354.688 735.352 237.672 666.259 237.672C662.592 237.672 659.258 238.005 656.174 238.671C648.757 240.335 643.339 244.08 640.089 249.906C633.421 261.891 633.504 274.042 640.422 286.11C646.673 297.096 658.591 307.998 675.76 318.568C708.682 338.792 761.356 357.518 816.697 368.504C840.451 373.248 862.871 376.078 879.79 376.494Z" fill="white"/>
<path fill-rule="evenodd" clip-rule="evenodd" d="M815.14 332.784C815.743 333.157 816.078 333.364 816.115 333.382C816.186 333.439 816.265 333.501 816.352 333.57C817.791 334.702 821.178 337.367 819.449 339.957C818.365 341.622 815.031 342.204 810.531 342.204C798.196 342.204 777.276 337.377 771.942 336.129C744.188 329.471 718.434 319.899 703.099 310.495C687.68 301.007 682.346 291.769 687.18 283.03C688.347 280.949 690.347 279.535 693.014 278.869C703.849 276.039 727.852 284.445 764.441 303.67C788.507 316.315 810.335 329.813 815.14 332.784ZM772.442 333.715C800.779 340.456 815.948 340.623 817.365 338.542C817.448 338.376 817.282 337.377 814.615 335.463C812.281 333.965 727.102 280.866 697.681 280.866C696.098 280.866 694.764 281.033 693.514 281.366C691.43 281.865 690.097 282.864 689.263 284.279C685.18 291.602 690.18 299.675 704.266 308.331C719.351 317.652 744.855 327.14 772.442 333.715Z" fill="white"/>
<path d="M114.346 541.948C145.851 554.848 175.939 567.249 196.275 567.249C201.776 567.249 206.526 566.333 210.443 564.336C215.944 561.506 219.445 556.429 220.945 549.355C224.529 532.71 206.776 516.647 179.856 492.345C153.185 468.292 116.68 435.418 84.4255 386.148C62.589 352.774 41.9194 331.302 22.8333 321.73V324.477C41.2526 334.048 61.1722 355.021 82.3419 387.479C114.846 437.082 151.435 470.04 178.189 494.176C204.443 517.895 221.862 533.542 218.528 548.772C217.111 555.181 214.111 559.509 209.277 562.005C192.024 571.077 154.769 555.763 115.347 539.534C89.3428 528.881 62.4223 517.812 39.0857 512.819C33.2515 511.57 27.7507 510.738 22.75 510.322V512.819C27.584 513.235 32.9181 513.984 38.5856 515.232C61.6722 520.309 88.4261 531.295 114.346 541.948Z" fill="white"/>
<path d="M104.096 246.744C122.849 281.199 142.935 316.654 162.521 342.537C184.108 370.917 202.86 384.733 219.946 384.733C220.113 384.733 220.28 384.733 220.446 384.733C237.449 384.483 252.451 370.834 266.286 343.203C295.374 285.194 329.795 249.74 365.884 240.834C390.554 234.759 415.891 240.751 441.144 258.811C460.564 272.71 474.399 277.288 483.234 272.877C496.319 266.385 497.069 242.166 497.903 214.202C498.819 183.491 499.819 148.619 518.239 132.64C526.823 125.233 538.325 122.486 553.411 124.151C592.916 128.645 630.505 122.653 662.093 107.006C692.097 92.1087 715.35 69.3878 729.269 41.2573C742.521 14.5416 746.355 -15.5864 740.521 -45.7144C738.104 -58.2816 734.02 -70.5991 728.436 -82.667H725.602C745.105 -41.5531 746.188 1.72469 727.102 40.1753C713.433 67.8065 690.597 90.1112 661.093 104.759C629.921 120.239 592.749 126.065 553.744 121.654C538.158 119.906 525.657 122.902 516.655 130.726C497.402 147.371 496.402 182.826 495.402 214.036C494.652 240.085 493.902 264.72 482.15 270.546C474.149 274.541 461.231 269.964 442.561 256.647C416.641 238.171 390.637 232.012 365.217 238.254C328.378 247.409 293.373 283.28 264.036 341.955C250.617 368.67 236.365 381.82 220.446 382.07C220.28 382.07 220.113 382.07 219.946 382.07C183.691 382.07 143.935 314.573 106.263 245.329C83.1766 202.883 55.0893 173.754 22.668 158.274V161.02C54.2558 176.667 81.5931 205.297 104.096 246.744Z" fill="white"/>
<path d="M135.517 139.881C149.935 139.881 162.604 137.8 173.022 133.556C196.776 123.901 208.611 104.177 208.194 74.7144C207.777 45.8348 215.528 24.3623 231.864 9.1319C272.12 -28.6529 358.799 -22.1613 450.645 -15.1702C464.147 -14.1715 478.149 -13.0896 491.901 -12.1741C505.32 -11.2586 517.655 -10.8425 528.99 -10.8425C580.747 -10.8425 610.085 -20.0806 616.502 -38.4737C621.003 -51.457 613.502 -67.1868 601.5 -82.5005H598.25C610.585 -67.27 618.419 -51.7067 614.169 -39.2227C606.834 -18.0832 565.828 -9.76052 492.151 -14.5877C478.399 -15.5031 464.397 -16.5851 450.895 -17.5838C358.549 -24.5748 271.286 -31.1497 230.197 7.38414C213.361 23.1972 205.36 45.2522 205.777 74.8808C206.194 103.178 194.859 122.237 172.189 131.392C143.018 143.21 95.5944 137.8 41.92 116.577C35.5025 114.081 29.1682 111.334 22.834 108.504V111.251C28.8348 113.997 34.919 116.577 41.0032 118.908C76.0916 132.723 108.763 139.881 135.517 139.881Z" fill="white"/>
<path d="M87.7606 60.6491C117.765 58.8181 143.185 43.0883 163.438 13.8758L166.772 9.04867C191.359 -26.4058 203.694 -44.2163 221.946 -51.6235C240.199 -59.0306 264.953 -56.3674 314.293 -50.9576C320.294 -50.2918 326.711 -49.626 333.462 -48.877C391.887 -42.5518 434.227 -40.4711 462.898 -42.4685C490.485 -44.3827 506.154 -49.9589 512.155 -60.0293C515.822 -66.1881 515.655 -73.6785 512.655 -82.5005H510.071C513.071 -74.0114 513.405 -66.9371 509.988 -61.2777C504.487 -52.0396 489.068 -46.7131 462.731 -44.8821C434.227 -42.9679 392.054 -45.0486 333.712 -51.3738C326.961 -52.1228 320.544 -52.7886 314.543 -53.4544C264.786 -58.9474 239.866 -61.6939 220.946 -53.9538C202.027 -46.2137 189.525 -28.2368 164.688 7.63382L161.354 12.461C141.518 41.0077 116.765 56.4046 87.5939 58.1523C72.5918 59.0678 50.8387 56.4878 22.668 43.338V46.0845C47.4215 57.4865 67.2577 60.8156 82.0098 60.8156C84.0101 60.8156 85.927 60.7323 87.7606 60.6491Z" fill="white"/>
<path d="M635.755 -21.1626C619.169 11.379 546.158 6.96798 545.325 6.88476C504.402 6.88476 466.397 3.97183 432.892 1.30858C383.052 -2.60307 339.962 -5.93213 308.124 2.3073C291.289 6.63508 278.203 14.0422 268.202 24.8617C257.367 36.5134 250.033 52.2432 245.699 72.8002C231.28 141.545 193.525 149.785 163.104 156.36C144.768 160.354 128.932 163.767 123.681 180.079C118.931 194.977 124.432 224.605 137.85 255.566C152.185 288.773 171.688 314.49 190.024 324.311C195.942 327.473 201.859 329.055 207.443 329.055C218.112 329.055 228.196 323.395 237.031 312.326C250.45 295.514 261.368 277.204 271.953 259.477C291.705 226.353 308.708 197.806 335.128 191.398C351.381 187.486 370.3 192.313 392.803 206.379C422.641 224.938 443.31 230.764 456.062 224.189C471.898 216.033 473.481 190.815 475.148 164.016C477.399 128.063 479.732 90.8603 516.738 92.5248C525.239 92.8577 533.407 93.1074 541.324 93.1074C621.336 93.1074 673.26 74.215 695.68 36.7631C713.349 7.38411 708.848 -28.0704 702.014 -52.539C698.764 -64.2739 694.68 -74.594 691.096 -82.5837H688.345C692.013 -74.594 696.263 -63.8578 699.597 -51.7899C711.682 -8.26247 702.931 19.7016 693.513 35.5147C669.343 75.7963 609.834 94.1894 516.821 90.1113C499.068 89.3622 487.233 96.8526 480.649 113.082C474.898 127.147 473.731 145.873 472.648 164.016C471.064 190.066 469.481 214.618 454.895 222.109C442.977 228.267 423.141 222.441 394.053 204.381C370.883 189.983 351.381 184.989 334.462 189.151C307.041 195.809 289.705 224.772 269.702 258.395C259.201 276.039 248.283 294.266 234.947 310.911C221.945 327.14 207.193 330.886 191.024 322.23C173.188 312.659 154.019 287.441 139.934 254.733C127.015 224.772 121.348 195.143 125.848 180.995C130.682 166.014 145.101 162.851 163.437 158.94C178.773 155.611 196.108 151.865 211.611 140.047C229.53 126.398 241.448 104.593 247.949 73.3827C256.034 34.6824 274.703 13.5429 308.541 4.80409C322.71 1.14213 339.296 -0.189499 357.715 -0.189499C380.051 -0.189499 405.305 1.80794 432.476 3.8886C466.064 6.46863 504.069 9.46478 544.992 9.46478C544.992 9.46478 544.992 9.46478 545.075 9.46478C545.242 9.46478 564.078 10.7132 584.664 7.71702C612.668 3.72215 630.504 -5.59922 637.838 -19.9142C645.756 -35.4775 640.672 -56.4506 622.669 -82.5005H619.669C638.005 -56.7003 643.339 -36.1433 635.755 -21.1626Z" fill="white"/>
<path d="M642.09 9.04862C628.421 26.1101 587.082 33.1843 522.656 29.5223C473.733 26.7759 428.393 18.7029 427.976 18.6197C427.726 18.5364 400.056 13.6261 368.884 19.7016C350.465 23.1971 334.463 29.772 321.211 39.2598C304.625 51.078 292.373 67.3904 284.872 87.6977C270.37 127.064 254.118 153.946 235.115 169.925C218.613 183.824 202.527 187.486 187.525 190.066C165.605 193.811 158.188 207.794 155.854 218.863C151.187 240.502 162.438 269.714 179.941 281.449C184.691 284.612 189.525 286.193 194.193 286.193C198.527 286.193 202.777 284.861 206.778 282.115C223.197 270.962 240.033 249.49 257.869 226.852C291.79 183.658 326.878 139.048 362.133 161.436C367.301 164.682 372.302 167.928 377.052 171.091C402.889 187.986 423.392 201.385 436.311 195.06C443.978 191.315 448.312 181.411 449.896 163.767C453.146 127.313 459.147 99.8487 477.9 84.3686C491.235 73.2995 510.238 69.2214 536.075 71.7182C608.419 78.7924 656.092 65.9756 677.845 33.7669C695.264 7.96667 692.264 -25.5736 686.68 -49.2099C683.513 -62.6094 679.179 -74.4276 675.762 -82.667H673.095C676.512 -74.5108 681.012 -62.443 684.263 -48.6273C689.68 -25.4904 692.597 7.30087 675.762 32.352C654.592 63.7284 607.669 76.1292 536.325 69.2214C509.821 66.6414 490.235 70.9691 476.316 82.4544C456.98 98.5171 450.729 126.481 447.396 163.6C445.895 180.079 441.978 189.65 435.227 192.896C423.559 198.555 403.639 185.572 378.469 169.093C373.635 165.931 368.634 162.685 363.467 159.439C346.715 148.786 328.629 151.449 308.209 167.595C290.373 181.577 272.871 203.882 255.952 225.438C238.282 247.992 221.53 269.215 205.444 280.201C196.026 286.609 187.192 283.363 181.358 279.452C164.605 268.216 153.854 240.169 158.271 219.445C160.521 209.125 167.439 196.059 187.942 192.563C203.277 189.9 219.696 186.155 236.699 171.84C256.035 155.527 272.537 128.312 287.206 88.5299C294.54 68.6388 306.459 52.7425 322.544 41.2573C335.463 32.0191 351.215 25.6107 369.218 22.1152C380.886 19.8681 392.054 19.119 401.472 19.119C416.808 19.119 427.309 21.0332 427.476 21.0332C427.893 21.1165 473.399 29.1894 522.49 31.9359C588.666 35.6811 629.588 28.5236 644.007 10.5467C658.259 -7.18055 661.593 -30.9833 653.592 -58.5313C650.841 -67.9359 647.258 -76.2586 644.09 -82.667H641.257C644.507 -76.3418 648.341 -67.6862 651.175 -57.8655C656.592 -39.1395 659.426 -12.507 642.09 9.04862Z" fill="white"/>
<path fill-rule="evenodd" clip-rule="evenodd" d="M375.385 42.0063C384.303 37.6785 394.221 36.763 403.389 39.5095C412.307 42.1727 419.058 47.7489 423.392 56.0716C436.394 81.1227 424.892 125.15 416.891 149.119C414.808 155.444 412.224 158.773 408.807 159.522C408.307 159.605 407.807 159.689 407.306 159.689C401.754 159.689 395.378 153.189 387.441 145.097L387.304 144.957C379.719 137.217 371.135 128.479 360.8 122.32C343.547 112 335.046 100.431 335.546 87.7809C336.463 65.7258 365.384 46.9166 375.385 42.0063ZM408.307 157.109C410.724 156.526 412.807 153.696 414.558 148.37C432.893 93.2738 426.559 67.64 421.142 57.32C417.141 49.6631 410.89 44.5031 402.639 42.0063C399.389 41.0076 396.055 40.5082 392.638 40.5082C387.137 40.5082 381.636 41.7566 376.469 44.2534C366.801 48.9973 338.88 67.0575 338.047 87.8641C337.547 99.5158 345.714 110.418 362.133 120.156C372.62 126.34 381.633 135.546 388.932 143L389.137 143.21L389.232 143.306C397.026 151.255 403.741 158.103 408.307 157.109Z" fill="white"/>
<path fill-rule="evenodd" clip-rule="evenodd" d="M379.885 80.6234C382.802 79.2085 386.052 78.8756 389.053 79.7911C392.053 80.7066 394.303 82.5376 395.72 85.3673C399.887 93.357 396.304 107.089 393.803 114.58C393.387 115.995 392.553 117.909 390.719 118.325C390.469 118.408 390.303 118.408 390.053 118.408C387.989 118.408 386.007 116.367 383.378 113.659L383.302 113.581C381.051 111.251 378.468 108.587 375.384 106.756C369.8 103.427 367.049 99.599 367.216 95.3545C367.529 87.4 378.305 81.4917 379.73 80.7105C379.826 80.6579 379.879 80.6286 379.885 80.6234ZM390.219 115.828C390.469 115.828 390.97 115.162 391.47 113.748C393.303 108.005 397.387 93.8564 393.637 86.4492C392.47 84.2853 390.803 82.8705 388.469 82.2047C387.552 81.955 386.552 81.7885 385.635 81.7885C384.052 81.7885 382.552 82.1214 381.051 82.8705C378.801 84.0356 370.05 89.4454 369.8 95.5209C369.633 98.6835 371.967 101.763 376.717 104.593C380.051 106.59 382.885 109.503 385.135 111.833C385.249 111.946 385.364 112.062 385.48 112.178C387.252 113.952 389.359 116.062 390.219 115.828Z" fill="white"/>
<path d="M1187.33 110.419C1141.24 77.6273 1085.74 50.329 1041.73 65.6427C1009.89 76.7118 987.805 109.004 976.22 161.603C970.886 185.905 957.55 201.219 936.631 207.128C897.458 218.28 834.783 192.646 791.027 147.454C755.938 111.334 741.853 71.635 752.354 38.5941C762.106 7.96672 764.856 -25.3239 760.606 -60.1958C759.689 -67.6029 758.439 -75.0101 756.938 -82.5005H754.355C755.938 -74.8436 757.188 -67.3533 758.105 -59.8629C762.356 -25.3239 759.605 7.63382 750.021 37.9283C739.186 71.8847 753.521 112.416 789.276 149.285C810.113 170.758 836.283 188.818 863.037 200.137C882.04 208.21 900.376 212.288 916.545 212.288C924.046 212.288 931.047 211.372 937.381 209.625C958.884 203.549 973.219 187.153 978.72 162.185C990.138 110.502 1011.56 78.8757 1042.56 68.0563C1086.07 52.909 1141.49 80.7067 1187.33 113.581V110.419V110.419Z" fill="white"/>
<path d="M1187.33 45.5851C1153.33 16.539 1099.99 -9.17796 1056.65 -0.439178C1029.73 4.97054 1009.22 22.8642 995.806 52.5761C977.22 93.69 953.633 122.486 925.629 138.299C895.625 155.194 868.954 152.365 851.868 147.038C831.199 140.547 813.363 126.897 801.611 108.588C789.443 89.6951 784.942 67.3904 789.026 45.8348C797.444 1.0589 800.694 -42.0524 798.611 -82.5837H796.11C798.111 -42.3021 794.944 0.725994 786.609 45.3354C782.442 67.5569 787.026 90.4442 799.528 109.836C811.613 128.645 829.949 142.627 851.202 149.285C860.12 152.115 869.288 153.447 878.456 153.447C894.875 153.447 911.46 149.036 926.879 140.38C955.383 124.317 979.303 95.1049 998.139 53.4916C1011.22 24.5288 1031.06 7.21766 1057.15 1.89117C1078.32 -2.35339 1103.74 1.47504 1130.66 13.1267C1150.83 21.8655 1171.16 34.6824 1187.33 48.8309V45.5851V45.5851Z" fill="white"/>
<path d="M1187.33 -3.51851C1180.5 -2.93592 1172.92 -2.93592 1164.83 -3.68496C1136.41 -6.34821 1102.07 -17.3341 1070.57 -33.9794C1034.06 -53.288 1003.56 -24.4916 968.303 8.79902C941.465 34.1831 911.044 62.8962 873.372 73.2996C860.12 76.9615 849.869 75.0473 842.785 67.8066C818.698 42.9219 834.784 -38.5569 845.785 -82.4172H843.201C839.868 -69.0178 836.034 -52.2892 833.033 -34.8117C823.782 19.5352 826.449 54.6568 840.951 69.6376C846.202 75.0473 852.953 77.7106 861.121 77.7106C865.121 77.7106 869.372 77.0448 874.039 75.7964C912.211 65.3098 942.966 36.347 969.97 10.7132C1004.56 -21.9116 1034.4 -50.1254 1069.32 -31.6491C1101.49 -14.5876 1135.33 -3.76818 1164.5 -1.10493C1172.67 -0.355896 1180.33 -0.27267 1187.25 -0.855255V-3.51851H1187.33Z" fill="white"/>
<path fill-rule="evenodd" clip-rule="evenodd" d="M671.927 135.636C671.26 128.978 680.345 121.155 698.847 112.25C711.016 106.424 725.434 108.255 735.603 116.993C743.604 123.901 752.272 133.722 747.938 141.878C744.604 148.203 734.019 151.532 719.934 151.532C710.516 151.532 699.514 150.034 688.012 146.955C677.594 144.209 672.344 140.463 671.927 135.636ZM688.596 144.541C715.183 151.699 740.77 149.951 745.687 140.713C748.521 135.47 744.437 127.896 733.936 118.908C728.101 113.997 720.85 111.417 713.516 111.417C708.849 111.417 704.181 112.416 699.847 114.497C682.928 122.653 673.844 130.06 674.344 135.387C674.677 138.965 679.595 142.128 688.596 144.541Z" fill="white"/>
</g>
<g opacity="0.21">
<path d="M1037.46 370.308C993.473 367.936 988.224 359.067 981.559 347.826C974.062 335.275 964.814 319.661 897.5 307.21C863.76 300.984 831.436 297.081 798.612 295.277C769.287 293.671 740.128 293.77 709.637 295.598C652.987 299.008 599.502 308.099 547.683 316.87C499.197 325.097 449.045 333.62 395.06 337.82C366.068 340.093 338.41 340.933 310.501 340.439C279.177 339.87 248.352 337.622 216.361 333.546C160.46 326.431 104.893 323.96 51.2416 326.184C41.3277 326.604 31.4972 327.172 21.75 327.913V328.679C31.6638 327.938 41.5777 327.345 51.6581 326.925C104.893 324.701 159.961 327.172 215.445 334.213C254.85 339.228 291.34 341.303 325.747 341.303C408.806 341.303 479.703 329.272 548.933 317.537C602.917 308.371 653.82 299.724 710.137 296.339C740.295 294.511 769.12 294.412 798.112 296.018C830.686 297.797 862.76 301.676 896.167 307.852C925.742 313.312 962.565 320.106 979.143 347.949C982.559 353.755 985.558 358.77 993.473 362.797C1002.22 367.269 1016.13 369.888 1037.04 371.024C1098.94 374.384 1135.77 379.696 1152.84 387.75C1156.93 389.652 1159.93 391.727 1161.92 393.926H1164.51C1162.42 391.579 1159.34 389.405 1154.93 387.354C1137.43 379.127 1100.11 373.692 1037.46 370.308Z" fill="white"/>
<path d="M989.225 378.485C936.823 376.163 931.908 371.493 921.244 361.315C911.913 352.446 897.834 339.006 842.766 319.513C768.704 293.276 690.143 309.68 599.169 328.679C506.946 347.949 402.392 369.764 274.762 354.051C225.859 348.023 176.54 345.059 128.054 345.182C91.9806 345.281 56.2408 347.109 21.834 350.617V351.408C56.2408 347.875 91.8973 346.047 128.054 345.948C176.207 345.8 225.193 348.789 273.762 354.768C331.246 361.858 389.312 361.982 451.128 355.188C505.196 349.234 553.682 339.105 600.586 329.321C645.573 319.933 688.061 311.064 727.799 307.902C771.703 304.393 807.61 308.247 840.85 320.032C895.585 339.426 909.581 352.767 918.828 361.587C929.492 371.765 934.907 376.879 988.891 379.276C1020.47 380.684 1040.21 384.143 1047.62 389.553C1049.46 390.912 1050.54 392.394 1050.96 394H1053.46C1053.12 392.295 1051.96 390.714 1049.96 389.281C1042.13 383.55 1021.72 379.943 989.225 378.485Z" fill="white"/>
<path d="M729.798 344.96C706.638 340.389 675.564 340.537 637.491 345.478C607.25 349.382 572.51 356.299 534.187 365.984C495.032 375.915 460.042 386.786 438.215 393.926H441.547C463.374 386.786 497.531 376.212 535.77 366.527C573.926 356.868 608.416 349.999 638.408 346.121C675.647 341.303 705.888 341.105 728.299 345.552C780.367 355.855 808.026 373.247 832.436 388.589C835.352 390.393 838.101 392.172 840.933 393.901H843.682C840.683 392.073 837.684 390.195 834.685 388.268C810.275 372.852 782.45 355.361 729.798 344.96Z" fill="white"/>
<path d="M663.234 371.147C652.404 368.875 638.408 368.924 621.663 371.296C608.5 373.173 593.587 376.484 577.342 381.153C561.846 385.625 547.934 390.492 538.77 393.926H542.019C568.011 384.315 627.578 364.576 661.734 371.74C683.811 376.385 696.724 385.6 707.888 393.926H710.554C699.224 385.452 686.144 375.965 663.234 371.147Z" fill="white"/>
<path d="M253.185 370.48C231.774 368.85 209.614 367.17 189.703 365.169C140.3 360.154 83.0665 364.378 43.7444 368.8C35.9966 369.665 28.6654 370.579 21.834 371.493V372.309C28.9153 371.37 36.5798 370.406 44.6608 369.492C83.5664 365.119 140.217 360.944 188.87 365.885C208.781 367.911 231.024 369.591 252.518 371.222C300.838 374.878 346.491 378.337 349.657 384.612C350.99 387.255 344.825 390.344 330.996 393.926H334.661C347.741 390.344 353.489 387.231 352.156 384.488C348.657 377.719 304.42 374.359 253.185 370.48Z" fill="white"/>
<path d="M221.61 381.301C205.115 380.461 185.037 380.511 166.543 381.45C132.302 383.179 65.3216 388.713 21.834 392.443V393.209C65.3216 389.479 132.719 383.92 167.043 382.166C185.287 381.252 205.032 381.178 221.277 382.018C244.77 383.228 253.018 385.773 255.851 387.725C258.433 389.479 257.767 391.554 253.934 393.901H256.767C260.433 391.48 260.849 389.306 258.1 387.428C252.518 383.624 235.19 381.993 221.61 381.301Z" fill="white"/>
<path d="M124.221 244.977C161.877 252.487 186.454 263.259 208.031 272.77C232.524 283.542 253.768 292.856 286.925 294.363C290.007 294.511 293.173 294.561 296.339 294.561C321.915 294.561 352.323 290.188 390.895 280.972C419.804 274.055 443.88 267.78 465.124 262.221C509.945 250.486 542.352 242.012 578.175 239.27C614.748 236.453 654.903 239.418 716.719 249.473C767.205 257.7 827.437 263.357 881.839 264.988C907.165 265.754 930.158 265.606 948.403 264.519C967.647 263.382 981.144 261.332 988.391 258.392C998.305 254.365 1000.72 246.879 955.651 234.057C901.75 218.715 840.434 216.862 775.536 214.91C732.548 213.625 688.061 212.267 643.157 206.906C592.338 200.853 548.267 190.328 508.362 174.788C478.87 163.3 444.463 157.865 408.724 159.076C384.397 159.891 360.487 163.696 337.661 170.341C314.75 177.061 294.09 186.326 276.428 197.888C263.265 206.461 248.769 210.858 231.857 211.303C195.284 212.267 152.963 194.034 112.142 176.394C91.7307 167.574 70.6534 158.483 50.5758 151.961C40.1621 148.526 30.6648 146.031 21.834 144.376V145.29C49.9093 150.775 80.4006 163.918 110.142 176.765C130.636 185.609 151.88 194.775 172.291 201.446C194.118 208.561 212.779 212.044 229.191 212.044C230.191 212.044 231.191 212.02 232.191 211.995C250.019 211.525 265.265 207.004 278.761 198.16C296.339 186.672 316.75 177.481 339.493 170.836C361.904 164.289 385.314 160.558 409.057 159.767C443.797 158.606 477.537 163.943 506.446 175.208C546.601 190.872 591.088 201.446 642.24 207.548C687.477 212.958 732.131 214.292 775.286 215.602C839.767 217.554 900.667 219.382 953.985 234.551C997.805 247.027 995.806 254.142 986.475 257.922C972.813 263.432 933.824 265.779 882.172 264.222C828.104 262.592 768.204 256.959 717.969 248.781C655.57 238.627 614.915 235.663 577.592 238.529C541.186 241.32 508.612 249.844 463.541 261.653C442.297 267.212 418.304 273.487 389.396 280.38C346.575 290.608 314.167 294.808 287.342 293.597C255.267 292.164 234.357 282.974 210.114 272.326C188.37 262.765 163.71 251.944 125.638 244.334C94.0634 238.034 63.9886 234.872 35.9133 234.872C31.1647 234.872 26.4993 234.971 21.834 235.144V235.885C53.4083 234.674 87.7318 237.689 124.221 244.977Z" fill="white"/>
<path d="M68.5706 317.71C107.143 317.883 150.297 320.18 188.37 322.181C242.938 325.072 285.925 327.345 291.257 322.107C299.255 314.251 273.262 307.753 230.108 297.006C199.2 289.298 160.628 279.713 119.389 265.927C88.3983 255.6 57.4905 250.906 27.6657 252.043C25.8328 252.117 23.9167 252.215 21.834 252.339V253.105C23.8334 252.981 25.9162 252.858 27.9989 252.784C56.9906 251.697 87.0654 256.292 117.557 266.446C158.962 280.281 197.534 289.891 228.525 297.624C270.846 308.173 296.422 314.547 288.924 321.934C284.259 326.53 240.022 324.182 188.87 321.49C133.635 318.55 68.7373 315.116 21.834 318.105V318.871C35.1635 318.006 50.6591 317.636 68.5706 317.71Z" fill="white"/>
<path d="M178.455 313.781C200.116 313.781 212.279 312.62 214.612 310.273C219.777 305.159 176.706 295.944 150.463 290.904C113.391 283.764 69.2364 277.044 45.4932 274.895C37.5788 274.179 29.5811 273.684 21.75 273.388V274.129C29.3312 274.426 37.079 274.92 44.7434 275.611C68.32 277.736 112.224 284.407 149.047 291.522C191.951 299.798 215.528 306.716 212.112 310.051C208.78 313.312 179.122 313.905 128.553 311.731C87.6479 310.001 44.9101 306.963 21.8333 305.036V305.802C45.16 307.753 87.6479 310.743 128.303 312.497C148.547 313.361 165.292 313.781 178.455 313.781Z" fill="white"/>
<path d="M71.1526 300.391C81.1497 300.391 86.7315 299.823 87.8145 298.686C90.1471 296.413 73.4852 292.633 59.0727 289.866C46.6596 287.47 32.4969 285.197 21.75 283.813V284.629C32.247 286.012 45.8265 288.211 57.7397 290.509C76.2345 294.066 86.8148 297.13 85.3985 298.489C83.1491 300.687 49.742 299.452 21.75 297.599V298.34C30.1643 298.884 39.5782 299.427 48.7423 299.823C57.9063 300.193 65.3209 300.391 71.1526 300.391Z" fill="white"/>
<path fill-rule="evenodd" clip-rule="evenodd" d="M305.585 280.898C303.169 280.898 300.836 280.824 298.587 280.651C278.176 279.169 261.931 274.87 251.6 268.274C241.187 261.554 237.688 252.882 241.603 243.173C245.185 234.427 255.599 225.756 271.928 218.097C329.995 190.798 378.231 175.826 415.304 173.603C427.217 172.886 438.13 173.504 447.544 175.455C482.85 182.728 505.88 189.808 526.191 196.052L526.938 196.282L527.12 196.338C558.525 205.996 583.36 213.634 637.74 218.048C672.147 220.839 688.392 223.409 687.309 225.929C686.476 227.88 674.813 229.437 652.569 230.573C630.992 231.66 599.834 232.327 562.512 232.476C534.353 232.599 505.111 235.836 473.037 242.432C445.045 248.213 418.553 255.748 395.143 262.419C360.569 272.276 330.328 280.898 305.585 280.898ZM274.094 218.492C258.015 226.052 247.685 234.625 244.186 243.272C240.353 252.833 243.769 261.381 254.016 267.977C263.93 274.376 279.592 278.527 299.253 279.959C301.336 280.108 303.502 280.182 305.668 280.182C329.327 280.182 359.234 271.659 393.39 261.926L393.393 261.925C416.803 255.229 443.379 247.669 471.621 241.864C504.111 235.193 533.853 231.883 562.512 231.759C599.751 231.611 630.742 230.944 652.153 229.857C679.728 228.449 684.477 226.744 684.893 225.855C686.06 223.038 651.903 219.95 637.157 218.764C582.006 214.268 556.93 206.56 525.272 196.801L524.93 196.696C504.603 190.446 481.586 183.37 446.211 176.073C439.713 174.739 432.549 174.072 424.717 174.072C421.885 174.072 418.886 174.171 415.887 174.344C379.564 176.518 331.827 191.366 274.094 218.492Z" fill="white"/>
<path fill-rule="evenodd" clip-rule="evenodd" d="M892.917 253.624C853.845 251.944 809.274 249.152 782.949 247.25C738.961 244.087 720.133 241.296 718.051 237.59C716.134 234.255 728.298 230.228 756.206 224.916C771.452 222.025 791.28 221.408 815.356 223.137C834.434 224.496 856.178 227.312 880.004 231.512C919.66 238.504 952.067 247.052 953.65 247.472C965.313 249.918 969.979 251.746 967.896 253.105C965.896 254.365 957.899 255.007 943.57 255.007C931.323 255.007 914.494 254.538 892.917 253.624ZM790.281 222.915C777.618 222.915 766.704 223.804 757.54 225.533C730.964 230.598 718.885 234.502 720.467 237.417C722.8 241.592 753.625 244.359 783.449 246.508C855.762 251.721 959.316 256.811 965.481 252.784C966.314 252.24 965.731 250.906 952.068 248.04L951.985 248.015C951.966 248.011 951.839 247.978 951.611 247.919C947.863 246.944 916.598 238.813 878.672 232.13C855.096 227.979 833.602 225.188 814.774 223.854C806.026 223.236 797.862 222.915 790.281 222.915Z" fill="white"/>
<path fill-rule="evenodd" clip-rule="evenodd" d="M861.843 244.532C847.014 243.89 830.019 242.827 820.022 242.111C805.609 241.073 795.862 240.011 794.779 238.232C793.946 236.849 798.528 235.292 809.608 233.192C820.272 231.142 836.434 231.982 857.428 235.687C872.34 238.306 884.587 241.518 885.503 241.765C888.836 242.457 892.418 243.371 891.168 244.186C890.502 244.631 888.586 245.051 881.255 245.051C876.922 245.051 870.758 244.903 861.843 244.532ZM823.02 232.871C818.605 232.871 814.523 233.167 811.024 233.834C801.36 235.663 796.695 237.12 797.195 238.108C798.028 239.566 809.441 240.579 820.521 241.37C857.761 244.062 887.252 244.902 888.835 243.89C888.835 243.89 889.335 243.519 884.003 242.382L883.92 242.358C883.905 242.354 883.845 242.339 883.742 242.312C880.981 241.597 847.277 232.871 823.02 232.871Z" fill="white"/>
<path d="M1056.87 108.751C1036.63 110.95 1024.63 116.681 1007.88 124.636C999.803 128.49 990.556 132.863 978.976 137.508C941.32 152.504 903.414 146.995 840.599 137.878C808.191 133.16 767.786 127.305 717.884 123.055C645.321 116.879 596.918 117.2 569.926 124.043C545.183 130.319 537.352 141.905 545.183 160.509C552.014 176.641 592.836 189.068 666.482 197.468C735.879 205.374 818.022 207.622 860.76 208.289C935.072 209.401 1000.3 212.81 1054.79 218.369C1098.28 222.816 1135.01 228.646 1163.92 235.712C1173.42 238.034 1181.5 240.332 1188.25 242.556V241.468C1181.83 239.443 1174.42 237.318 1165.76 235.193C1136.6 228.053 1099.61 222.174 1055.79 217.702C1001.05 212.118 935.488 208.709 860.926 207.573C818.272 206.93 736.462 204.682 667.398 196.801C594.669 188.525 554.347 176.295 547.682 160.459C539.935 142.128 547.516 130.763 571.592 124.661C597.918 117.991 645.571 117.694 717.217 123.821C766.953 128.07 807.192 133.901 839.516 138.595C871.423 143.24 896.666 146.896 919.16 147.538C943.569 148.23 962.647 145.29 980.975 138.002C992.639 133.357 1001.89 128.96 1010.05 125.081C1026.46 117.249 1038.38 111.592 1057.79 109.492C1078.28 107.268 1106.02 109.146 1150.68 115.767C1164.26 117.793 1176.75 120.016 1188.25 122.363V121.425C1177.09 119.152 1164.92 117.027 1151.76 115.075C1106.36 108.355 1078.03 106.453 1056.87 108.751Z" fill="white"/>
<path d="M1105.94 131.875C1085.45 132.048 1068.12 134.939 1054.46 140.473C1042.04 145.488 1033.3 150.058 1025.46 154.061C1000.3 167.031 988.808 172.96 911.747 163.992C889.253 161.374 862.761 157.569 834.685 153.542C757.374 142.424 669.732 129.825 623.329 135.952C609.333 137.78 599.752 141.288 594.837 146.328C588.172 153.147 590.755 159.323 602.668 164.684C619.996 172.466 656.486 178.643 714.136 183.584C758.957 187.438 816.69 190.526 895.668 193.342C973.229 196.109 1053.54 203.472 1121.69 214.046C1147.1 217.998 1169.67 222.248 1188 226.472V225.484C1169.92 221.383 1147.93 217.282 1122.77 213.379C1054.37 202.755 973.729 195.368 895.834 192.601C816.94 189.785 759.373 186.697 714.719 182.843C657.652 177.951 621.663 171.849 604.667 164.239C593.171 159.076 590.671 153.122 597.086 146.501C601.918 141.609 610.749 138.373 624.162 136.619C669.566 130.64 756.624 143.166 833.436 154.209C861.511 158.261 888.087 162.065 910.664 164.684C948.736 169.106 972.146 170.095 988.974 167.945C1005.22 165.87 1014.55 161.077 1027.38 154.431C1035.13 150.429 1043.88 145.908 1056.21 140.917C1069.37 135.581 1086.03 132.789 1105.77 132.616C1133.6 132.394 1163.84 137.434 1187.92 142.795V141.856C1150.1 133.456 1122.77 131.727 1105.94 131.875Z" fill="white"/>
<path d="M1102.19 151.096C1087.53 151.837 1076.7 155.246 1069.95 161.225C1049.79 179.038 1002.64 177.827 971.397 177.037C954.401 176.592 942.072 176.295 940.572 179.186C938.656 182.842 945.404 185.659 962.066 188.006C976.895 190.106 998.222 191.736 1022.88 193.589C1074.53 197.493 1140.68 202.508 1188.08 215.38V214.367C1140.43 201.717 1074.78 196.752 1023.47 192.873C974.479 189.167 939.156 186.499 942.988 179.285C944.071 177.185 953.902 177.333 971.147 177.778C987.142 178.173 1006.97 178.692 1025.71 176.814C1047.87 174.591 1063.12 169.576 1072.28 161.472C1078.7 155.79 1088.95 152.529 1102.61 151.837C1128.35 150.503 1162.26 158.186 1188.17 165.549V164.511C1186.84 164.116 1185.42 163.745 1184 163.35C1150.35 154.159 1122.85 150.034 1102.19 151.096Z" fill="white"/>
<path d="M1136.93 169.971C1124.1 168.587 1113.27 168.859 1104.94 170.811C1098.11 172.392 1095.19 174.64 1096.19 177.481C1099.78 187.314 1150.34 201.791 1188.17 208.536V207.647C1171.42 204.608 1152.76 200.161 1136.77 195.343C1113.94 188.45 1100.36 182.076 1098.61 177.358C1097.69 174.813 1100.28 172.787 1106.44 171.354C1128.85 166.141 1165.76 175.282 1188.17 182.052V180.989C1183 179.433 1177.09 177.802 1170.84 176.246C1158.43 173.182 1147.01 171.058 1136.93 169.971Z" fill="white"/>
<path fill-rule="evenodd" clip-rule="evenodd" d="M900.608 177.604C900.896 177.665 901.056 177.699 901.083 177.704C910.997 179.903 914.496 181.706 911.497 183.065C908.164 184.523 897.417 185.091 883.255 185.091C863.844 185.091 837.851 184.028 815.024 182.67C759.457 179.384 706.472 173.8 673.315 167.748C635.992 160.929 623.329 153.542 636.742 146.377C640.324 144.45 646.322 143.215 654.487 142.672C680.813 140.942 730.382 146.303 801.695 158.656C851.81 167.302 895.591 176.545 900.608 177.604ZM878.506 184.3C901.582 184.473 907.747 183.312 909.33 182.62C912.079 181.434 905.581 179.606 899.583 178.297C897.417 177.827 734.13 143.091 665.067 143.091C661.401 143.091 658.069 143.19 654.986 143.388C647.572 143.882 642.156 144.994 638.907 146.723C632.243 150.281 632.326 153.888 639.241 157.47C645.489 160.731 657.402 163.968 674.564 167.105C707.471 173.109 760.123 178.667 815.44 181.928C839.184 183.337 861.594 184.177 878.506 184.3Z" fill="white"/>
<path fill-rule="evenodd" clip-rule="evenodd" d="M813.882 171.35C814.485 171.46 814.82 171.522 814.857 171.527C816.107 171.799 820.022 172.664 818.106 173.479C817.023 173.973 813.691 174.146 809.192 174.146C796.862 174.146 775.952 172.713 770.62 172.343C742.878 170.366 717.135 167.525 701.806 164.733C686.394 161.917 681.062 159.175 685.894 156.58C687.06 155.963 689.06 155.543 691.726 155.345C702.556 154.53 726.632 157 763.205 162.707C787.26 166.461 809.08 170.468 813.882 171.35ZM771.203 171.601C799.528 173.603 814.69 173.652 816.107 173.034C816.273 173.01 816.023 172.713 813.357 172.12C811.025 171.676 725.882 155.913 696.474 155.913C694.891 155.913 693.558 155.963 692.309 156.062C690.226 156.21 688.893 156.506 688.06 156.926C683.978 159.1 688.976 161.497 703.056 164.066C718.135 166.833 743.627 169.65 771.203 171.601Z" fill="white"/>
<path fill-rule="evenodd" clip-rule="evenodd" d="M323.164 262.394C314.833 263.431 308.001 263.851 302.42 263.851C291.089 263.851 284.925 262.122 281.426 260.294C259.182 248.608 309.418 210.982 377.731 196.307C398.142 191.934 416.47 190.155 432.133 191.044C445.045 191.786 456.126 194.281 465.123 198.481C473.954 202.582 478.203 207.325 477.62 212.217C477.036 217.084 471.621 221.753 462.041 225.706L459.458 226.769L459.307 226.831C427.53 239.93 394.697 253.465 323.164 262.394ZM379.231 196.949C348.323 203.595 317.915 215.874 297.921 229.783C279.176 242.803 273.595 254.661 283.592 259.948C290.34 263.481 303.253 264.074 322.164 261.702C393.144 252.833 425.801 239.368 457.375 226.324L459.958 225.262C469.289 221.432 474.537 216.911 475.12 212.192C475.704 207.449 471.538 202.854 463.04 198.901C454.46 194.899 443.879 192.502 431.716 191.81C429.217 191.662 426.634 191.588 424.052 191.588C410.805 191.588 395.81 193.392 379.231 196.949Z" fill="white"/>
<path fill-rule="evenodd" clip-rule="evenodd" d="M346.657 245.446C341.492 246.088 337.243 246.36 333.827 246.36C327.246 246.36 323.664 245.397 321.748 244.384C315.999 241.37 319.498 234.996 330.828 227.757C342.658 220.247 360.403 213.428 378.398 209.574C390.311 207.029 400.975 205.991 410.222 206.51C417.803 206.93 424.385 208.388 429.633 210.858C440.047 215.75 439.381 221.976 427.801 226.744C409.389 234.329 389.312 240.11 346.657 245.446ZM379.897 210.191C362.319 213.971 344.824 220.666 333.161 228.078C322.247 234.971 318.665 241.246 323.997 244.038C327.496 245.891 334.827 246.138 345.74 244.779C387.895 239.517 407.639 233.81 425.801 226.324C436.798 221.803 437.464 215.898 427.55 211.278C422.635 209.005 416.72 207.647 409.805 207.251C408.389 207.177 406.973 207.128 405.473 207.128C397.892 207.128 389.395 208.165 379.897 210.191Z" fill="white"/>
<path d="M1151.59 247.225C1130.35 243.494 1109.19 242.704 1092.11 245.001C1066.7 248.386 1055.04 257.873 1065.04 267.063C1067.62 269.435 1066.04 271.337 1060.37 272.82C1042.46 277.464 984.559 277.859 901.416 273.882C829.603 270.448 752.209 264.247 713.136 258.762C680.729 254.216 654.57 253.475 635.325 256.514C618.247 259.207 607 264.988 602.751 273.19C596.42 285.469 509.361 297.179 439.381 306.567C389.729 313.238 350.49 318.5 345.241 322.823C344.325 323.565 344.408 324.256 345.491 324.899C350.157 327.765 361.57 328.259 382.647 326.505C402.058 324.874 429.551 321.391 464.291 316.968C518.192 310.1 592.088 300.687 686.894 291.719C764.622 284.382 832.186 285.222 887.67 294.215C917.745 299.106 943.737 306.32 964.898 315.659C982.976 323.663 997.389 333.224 1006.47 343.329C1013.13 350.741 1027.71 356.917 1049.87 361.685C1067.79 365.539 1090.78 368.504 1118.1 370.505C1139.43 372.061 1163.67 373 1188.42 373.272V372.531C1163.84 372.259 1139.85 371.32 1118.69 369.764C1091.7 367.812 1069.03 364.872 1051.37 361.067C1029.71 356.398 1015.47 350.37 1008.89 343.107C999.721 332.903 985.225 323.268 966.981 315.214C945.57 305.752 919.328 298.464 888.836 293.523C832.769 284.406 764.538 283.566 686.144 290.953C591.171 299.921 517.276 309.334 463.291 316.227C394.394 324.998 356.405 329.84 347.741 324.528C346.991 324.059 346.908 323.565 347.574 323.021C352.489 318.994 393.228 313.509 440.464 307.185C475.621 302.466 515.526 297.105 546.934 291.423C583.257 284.851 602.335 278.897 605.25 273.24C609.333 265.284 620.163 259.701 636.492 257.107C655.07 254.167 680.479 254.933 712.137 259.38C770.287 267.533 912.246 277.267 998.472 277.267C1028.21 277.267 1051.37 276.105 1062.12 273.314C1068.62 271.634 1070.45 269.435 1067.54 266.767C1057.95 257.947 1069.03 248.831 1093.28 245.594C1124.44 241.444 1158.93 247.719 1188.33 257.552V256.292C1176.17 252.462 1163.92 249.399 1151.59 247.225Z" fill="white"/>
<path d="M1141.51 259.158C1132.85 258.367 1124.69 258.639 1117.27 259.948C1095.53 263.827 1100.28 270.942 1104.44 277.242C1107.36 281.615 1110.11 285.741 1103.36 288.038C1098.69 289.619 1089.61 290.287 1075.7 290.039C1043.96 289.496 1013.47 287.495 988.974 285.889C956.4 283.764 932.823 282.208 924.243 285.049C921.66 285.914 920.41 286.877 920.66 287.939C921.327 291.299 936.322 295.228 955.4 300.193C982.809 307.358 1016.97 316.301 1028.71 328.308C1040.21 340.019 1055.71 351.605 1091.53 356.967C1105.27 359.017 1121.35 360.055 1139.93 360.055C1154.43 360.055 1170.51 359.437 1188.17 358.177V357.411C1148.18 360.277 1116.69 359.906 1092.61 356.299C1057.7 351.062 1042.38 339.648 1031.05 328.086C1019.05 315.881 984.642 306.864 956.983 299.625C938.405 294.758 923.743 290.929 923.076 287.865C922.91 287.001 923.909 286.235 926.075 285.518C933.657 282.998 957.816 284.58 988.474 286.581C1013.05 288.187 1043.71 290.188 1075.62 290.731C1090.36 290.978 1100.03 290.237 1105.27 288.458C1112.77 285.889 1109.94 281.59 1106.94 277.044C1102.69 270.695 1098.36 264.148 1118.6 260.541C1125.35 259.331 1132.85 259.108 1140.85 259.8C1154.93 261.06 1171.17 265.383 1188.25 272.326V271.041C1174.42 265.63 1157.93 260.615 1141.51 259.158Z" fill="white"/>
<path d="M1157.59 283.566C1145.43 284.728 1136.93 288.606 1136.51 293.251C1136.26 296.166 1134.26 297.97 1130.18 299.081C1121.35 301.478 1101.11 301.107 1064.28 300.44L1059.95 300.366C1045.71 300.119 1037.96 300.663 1035.38 302.071C1031.46 304.27 1041.04 308 1054.37 313.188C1066.28 317.808 1081.11 323.54 1089.44 329.667C1095.86 334.361 1106.77 337.597 1121.77 339.302C1130.6 340.29 1140.26 340.685 1149.93 340.685C1163.59 340.685 1177.17 339.92 1188.08 339.055V338.264C1168.09 339.87 1143.01 340.883 1122.68 338.61C1108.36 337.004 1097.94 333.891 1091.78 329.395C1083.28 323.169 1068.37 317.388 1056.37 312.744C1044.54 308.173 1034.38 304.22 1037.54 302.441C1039.54 301.33 1046.79 300.91 1059.7 301.132L1064.04 301.206C1102.69 301.898 1122.19 302.244 1131.77 299.65C1136.43 298.39 1138.68 296.413 1138.93 293.276C1139.35 288.952 1147.09 285.345 1158.26 284.283C1167.17 283.443 1177.42 284.209 1188.08 286.408V285.469C1174.42 282.776 1163.84 282.974 1157.59 283.566Z" fill="white"/>
<path d="M1136.6 309.458C1128.77 312.077 1126.35 315.387 1129.85 318.796C1133.68 322.502 1147.85 324.602 1171.92 325.022C1175.09 325.072 1178.25 325.096 1181.25 325.096C1183.59 325.096 1185.92 325.072 1188.08 325.047V324.306C1168.01 324.528 1137.68 323.935 1132.18 318.549C1128.93 315.387 1131.18 312.324 1138.35 309.927C1148.35 306.592 1166.26 304.887 1188 305.11V304.368C1165.67 304.196 1147.1 305.974 1136.6 309.458Z" fill="white"/>
<path d="M113.391 233.439C144.882 237.269 174.956 240.95 195.284 240.95C200.782 240.95 205.531 240.678 209.446 240.085C214.945 239.245 218.444 237.738 219.943 235.638C223.526 230.697 205.781 225.929 178.872 218.715C152.213 211.575 115.723 201.816 83.4824 187.191C61.572 177.284 40.9945 170.91 21.8333 168.069V168.884C40.2447 171.725 60.1557 177.951 81.3163 187.586C113.807 202.31 150.38 212.094 177.122 219.258C203.365 226.299 220.777 230.944 217.444 235.465C216.028 237.367 213.029 238.652 208.197 239.393C190.952 242.086 153.712 237.54 114.307 232.723C88.3143 229.56 61.4053 226.275 38.0787 224.792C32.247 224.422 26.7486 224.175 21.75 224.051V224.792C26.582 224.916 31.9138 225.138 37.5788 225.509C60.7389 227.016 87.5645 230.277 113.391 233.439Z" fill="white"/>
<path d="M101.56 220.098C110.224 220.098 115.723 219.456 117.972 218.196C123.47 215.034 106.892 209.005 68.5694 200.21C51.241 196.257 33.2461 192.601 21.916 190.353V191.217C59.8219 198.703 124.47 212.859 115.806 217.85C113.973 218.912 108.975 219.382 101.977 219.382C83.5651 219.382 50.9077 216.269 21.916 212.958V213.749C28.1642 214.465 34.7457 215.182 41.4105 215.874C68.4027 218.69 88.5637 220.098 101.56 220.098Z" fill="white"/>
<path fill-rule="evenodd" clip-rule="evenodd" d="M459.208 278.131C463.707 275.883 468.455 273.857 473.454 272.079C489.283 266.396 513.276 263.432 537.352 264.123C551.515 264.543 558.68 266.026 558.763 268.57C558.929 276.995 472.537 294.585 433.632 295.82C427.967 296.018 423.635 296.092 420.386 296.092C413.388 296.092 411.055 295.722 410.222 295.178C408.556 294.042 414.554 292.411 424.551 289.694C435.215 286.803 449.794 282.85 459.208 278.131ZM509.276 284.333C538.351 278.206 556.429 272.153 556.346 268.595C556.346 266.495 549.848 265.235 537.268 264.889C535.019 264.815 532.769 264.79 530.52 264.79C509.526 264.79 489.365 267.607 475.452 272.548C470.537 274.277 465.872 276.303 461.456 278.502C451.962 283.276 437.312 287.25 426.589 290.159L426.3 290.237C426.174 290.271 426.048 290.306 425.922 290.34C418.874 292.26 411.655 294.226 412.637 294.857C413.22 295.252 417.302 295.598 433.464 295.079C451.293 294.511 481.034 290.287 509.276 284.333Z" fill="white"/>
<path d="M103.227 145.809C121.972 156.037 142.05 166.561 161.627 174.245C183.205 182.669 201.949 186.771 219.028 186.771C219.194 186.771 219.361 186.771 219.528 186.771C236.523 186.696 251.518 182.645 265.348 174.443C294.423 157.223 328.83 146.698 364.903 144.055C389.562 142.251 414.888 144.03 440.131 149.391C459.542 153.517 473.372 154.876 482.203 153.566C495.282 151.639 496.032 144.45 496.865 136.149C497.781 127.033 498.781 116.681 517.193 111.938C525.774 109.739 537.27 108.924 552.349 109.418C591.838 110.752 629.411 108.973 660.985 104.328C690.976 99.9061 714.22 93.1615 728.132 84.8111C741.379 76.8806 745.211 67.9373 739.379 58.9939C736.963 55.2634 732.881 51.607 727.299 48.0247H724.467C743.961 60.2292 745.044 73.076 725.966 84.4899C712.304 92.6921 689.477 99.3132 659.985 103.661C628.827 108.257 591.671 109.986 552.682 108.677C537.104 108.158 524.607 109.047 515.61 111.369C496.365 116.311 495.365 126.835 494.366 136.1C493.616 143.832 492.866 151.145 481.12 152.875C473.122 154.06 460.209 152.702 441.548 148.749C415.638 143.264 389.646 141.436 364.236 143.289C327.413 146.007 292.423 156.655 263.098 174.072C249.686 182.002 235.44 185.906 219.528 185.98C219.361 185.98 219.194 185.98 219.028 185.98C182.788 185.98 143.049 165.944 105.393 145.389C82.3167 132.863 54.3247 124.216 21.834 119.621V120.436C53.325 125.007 80.6505 133.506 103.227 145.809Z" fill="white"/>
<path d="M134.551 114.087C148.963 114.087 161.626 113.47 172.04 112.21C195.783 109.344 207.613 103.489 207.196 94.7428C206.78 86.17 214.528 79.796 230.856 75.2749C271.095 64.0587 357.737 65.9857 449.544 68.0609C463.04 68.3574 477.036 68.6786 490.782 68.9503C504.195 69.2221 516.525 69.3456 527.855 69.3456C579.59 69.3456 608.915 66.6033 615.33 61.1434C619.829 57.2894 612.331 52.62 600.334 48.0742H597.085C609.415 52.5953 617.246 57.2152 612.997 60.9211C605.666 67.1962 564.678 69.6668 491.032 68.2339C477.286 67.9621 463.29 67.6409 449.794 67.3445C357.487 65.2692 270.262 63.3175 229.19 74.7561C212.362 79.4502 204.364 85.9971 204.781 94.7923C205.197 103.192 193.867 108.85 171.207 111.567C142.048 115.075 94.6453 113.47 40.9939 107.17C34.5791 106.429 28.2475 105.613 21.916 104.773V105.589C27.9143 106.404 33.9959 107.17 40.0775 107.861C75.2341 111.963 107.891 114.087 134.551 114.087Z" fill="white"/>
<path d="M86.8148 90.5676C116.806 90.0241 142.216 85.3548 162.46 76.6831L165.792 75.2502C190.369 64.7257 202.698 59.4387 220.943 57.2399C239.188 55.0412 263.931 55.8317 313.25 57.4376C319.248 57.6352 325.663 57.8329 332.411 58.0552C390.895 59.9081 433.216 60.5505 461.791 59.9575C489.367 59.3893 505.029 57.7341 511.027 54.7447C514.693 52.9165 514.526 50.693 511.527 48.0742H508.944C511.943 50.5942 512.277 52.6941 508.861 54.3741C503.363 57.067 487.95 58.6729 461.624 59.2164C433.133 59.8093 390.978 59.1917 332.661 57.3141C325.913 57.0917 319.498 56.8941 313.5 56.6964C263.764 55.0659 238.855 54.2506 219.943 56.5482C201.032 58.8458 188.536 64.1822 163.709 74.8302L160.377 76.2632C140.549 84.7371 115.806 89.3076 86.6481 89.8264C71.6524 90.0982 49.9086 89.3323 21.75 85.4289V86.2442C46.4929 89.6288 66.3206 90.617 81.0664 90.617C83.1491 90.617 85.0653 90.5923 86.8148 90.5676Z" fill="white"/>
<path d="M120.972 73.1254C132.886 71.4701 141.05 68.6537 145.132 64.7502C151.214 59.068 152.547 53.3363 151.547 48.0493H149.048C150.047 53.2622 148.714 58.9197 142.716 64.5279C138.801 68.2337 131.053 70.9019 119.806 72.4583C93.0637 76.1641 51.4922 73.1254 21.834 70.0866V70.8772C41.745 72.903 66.9045 74.9042 89.5647 74.9042C100.978 74.9042 111.808 74.3853 120.972 73.1254Z" fill="white"/>
<path d="M634.576 66.2819C618.08 75.9418 545.018 74.6324 544.185 74.6077C503.28 74.6077 465.291 73.743 431.8 72.9524C381.981 71.7913 338.91 70.803 307.086 73.2489C290.257 74.5336 277.178 76.7324 267.18 79.9441C256.35 83.4028 249.019 88.0722 244.687 94.1744C230.274 114.581 192.535 117.027 162.127 118.979C143.799 120.165 127.97 121.177 122.722 126.02C117.973 130.442 123.471 139.237 136.884 148.428C151.214 158.285 170.708 165.919 189.036 168.834C194.951 169.773 200.866 170.243 206.448 170.243C217.111 170.243 227.192 168.563 236.023 165.277C249.436 160.286 260.349 154.851 270.929 149.589C290.674 139.756 307.669 131.282 334.078 129.38C350.323 128.219 369.235 129.651 391.728 133.827C421.553 139.336 442.214 141.065 454.96 139.114C470.789 136.693 472.372 129.207 474.038 121.252C476.287 110.579 478.62 99.5355 515.61 100.03C524.107 100.128 532.271 100.203 540.186 100.203C620.163 100.203 672.065 94.5944 694.475 83.4769C712.137 74.7559 707.638 64.2314 700.807 56.968C697.558 53.4845 693.475 50.421 689.893 48.0493H687.144C690.81 50.421 695.058 53.608 698.391 57.1903C710.471 70.1113 701.723 78.4123 692.309 83.1064C668.149 95.0638 608.666 100.524 515.693 99.3131C497.948 99.0908 486.118 101.314 479.537 106.132C473.788 110.307 472.622 115.866 471.539 121.252C469.956 128.984 468.373 136.273 453.794 138.496C441.881 140.324 422.053 138.595 392.978 133.234C369.818 128.96 350.323 127.477 333.412 128.713C306.003 130.689 288.674 139.287 268.68 149.268C258.183 154.505 247.269 159.916 233.94 164.857C220.944 169.674 206.198 170.786 190.036 168.217C172.208 165.376 153.046 157.89 138.967 148.181C126.054 139.287 120.389 130.491 124.888 126.292C129.72 121.845 144.132 120.906 162.46 119.745C177.789 118.756 195.118 117.645 210.613 114.136C228.525 110.085 240.438 103.612 246.936 94.3474C255.017 82.8593 273.679 76.5841 307.502 73.9901C321.665 72.903 338.244 72.5077 356.655 72.5077C378.982 72.5077 404.225 73.1007 431.384 73.7183C464.957 74.4842 502.947 75.3736 543.852 75.3736C543.852 75.3736 543.852 75.3736 543.935 75.3736C544.101 75.3736 562.929 75.7441 583.507 74.8547C611.499 73.6689 629.327 70.9019 636.658 66.6525C644.573 62.0326 639.491 55.8068 621.496 48.074H618.497C636.825 55.708 642.157 61.835 634.576 66.2819Z" fill="white"/>
<path d="M640.991 75.2501C627.328 80.3147 586.007 82.4147 521.608 81.3276C472.706 80.5123 427.385 78.1159 426.969 78.0912C426.719 78.0665 399.06 76.6089 367.902 78.4124C349.491 79.45 333.495 81.4017 320.249 84.2182C303.67 87.7263 291.424 92.5686 283.926 98.5967C269.43 110.282 253.185 118.262 234.19 123.006C217.695 127.132 201.616 128.219 186.62 128.984C164.71 130.096 157.296 134.247 154.963 137.533C150.298 143.956 161.544 152.628 179.039 156.111C183.788 157.05 188.62 157.519 193.285 157.519C197.617 157.519 201.866 157.124 205.865 156.309C222.277 152.998 239.106 146.624 256.934 139.904C290.841 127.082 325.914 113.84 361.154 120.486C366.319 121.449 371.318 122.413 376.066 123.352C401.892 128.367 422.387 132.344 435.3 130.467C442.964 129.355 447.296 126.415 448.879 121.178C452.128 110.357 458.126 102.204 476.871 97.6085C490.201 94.3227 509.195 93.1121 535.021 93.8533C607.334 95.9533 654.987 92.1486 676.731 82.5876C694.142 74.9289 691.143 64.9726 685.561 57.9563C682.396 53.9787 678.064 50.4705 674.648 48.0247H671.982C675.398 50.4458 679.896 54.0281 683.145 58.1292C688.561 64.9973 691.476 74.7313 674.648 82.1676C653.487 91.4816 606.584 95.1627 535.271 93.1121C508.779 92.3463 489.201 93.6309 475.288 97.0403C455.96 101.808 449.712 110.109 446.38 121.128C444.88 126.02 440.965 128.861 434.216 129.824C422.553 131.504 402.642 127.65 377.483 122.759C372.651 121.82 367.652 120.856 362.487 119.893C345.742 116.731 327.664 117.521 307.253 122.314C289.424 126.465 271.929 133.086 255.018 139.484C237.356 146.179 220.611 152.479 204.532 155.74C195.118 157.643 186.287 156.679 180.456 155.518C163.71 152.183 152.963 143.857 157.379 137.705C159.628 134.642 166.543 130.763 187.037 129.726C202.366 128.935 218.778 127.823 235.773 123.574C255.101 118.732 271.596 110.653 286.259 98.8438C293.59 92.9392 305.503 88.2204 321.582 84.8111C334.495 82.0688 350.24 80.1665 368.235 79.1288C379.899 78.4618 391.062 78.2394 400.476 78.2394C415.805 78.2394 426.302 78.8077 426.469 78.8077C426.885 78.8324 472.372 81.2288 521.442 82.0441C587.589 83.1558 628.494 81.0312 642.907 75.6948C657.153 70.4572 660.485 63.3668 652.488 55.2139C649.738 52.4222 646.156 49.9517 642.99 48.0494H640.158C643.407 49.927 647.239 52.4963 650.072 55.4116C655.487 60.9209 658.236 68.8514 640.991 75.2501Z" fill="white"/>
<path fill-rule="evenodd" clip-rule="evenodd" d="M374.315 85.0333C383.23 83.7487 393.143 83.4769 402.307 84.2922C411.305 85.0827 418.053 86.738 422.302 89.2086C435.298 96.6449 423.801 109.714 415.804 116.829C413.721 118.707 411.138 119.695 407.723 119.917C407.223 119.942 406.723 119.967 406.223 119.967C400.673 119.967 394.3 118.037 386.366 115.636L386.229 115.594C378.648 113.296 370.067 110.702 359.736 108.874C342.491 105.811 333.994 102.377 334.493 98.6213C335.41 92.0744 364.318 86.491 374.315 85.0333ZM407.222 119.201C409.638 119.028 411.721 118.188 413.471 116.607C431.882 100.252 425.55 92.6427 420.052 89.5792C416.053 87.3063 409.805 85.7746 401.557 85.0334C398.308 84.7369 394.976 84.5887 391.56 84.5887C386.062 84.5887 380.563 84.9593 375.398 85.7005C365.734 87.1087 337.825 92.4697 336.992 98.6461C336.492 102.105 344.657 105.341 361.069 108.232C371.55 110.067 380.56 112.8 387.856 115.013L388.061 115.075L388.156 115.104C395.946 117.463 402.659 119.496 407.222 119.201Z" fill="white"/>
<path fill-rule="evenodd" clip-rule="evenodd" d="M378.899 96.4967C381.815 96.0767 385.064 95.9779 388.063 96.2497C390.979 96.5214 393.228 97.0649 394.728 97.9049C398.893 100.277 395.311 104.353 392.811 106.577C392.395 106.997 391.562 107.565 389.729 107.688C389.479 107.713 389.312 107.713 389.062 107.713C387 107.713 385.018 107.107 382.39 106.303L382.314 106.28C380.065 105.588 377.482 104.798 374.4 104.254C368.818 103.266 366.069 102.13 366.236 100.87C366.548 98.5083 377.32 96.7545 378.744 96.5226C378.84 96.507 378.893 96.4983 378.899 96.4967ZM389.146 106.947C389.396 106.947 389.896 106.75 390.395 106.33C392.312 104.625 396.31 100.425 392.561 98.2261C391.395 97.5838 389.729 97.1638 387.396 96.9662C386.48 96.892 385.48 96.8426 384.564 96.8426C382.981 96.8426 381.481 96.9415 379.982 97.1638C377.732 97.5097 368.985 99.1155 368.735 100.919C368.568 101.858 370.901 102.772 375.65 103.612C378.982 104.205 381.814 105.07 384.064 105.761C384.177 105.795 384.292 105.829 384.408 105.864C386.179 106.39 388.286 107.017 389.146 106.947Z" fill="white"/>
<path d="M1040.46 92.025C1008.64 95.3109 986.559 104.897 974.979 120.51C969.647 127.724 956.317 132.27 935.407 134.024C896.251 137.335 833.602 129.726 789.865 116.311C754.792 105.588 740.712 93.8038 751.209 83.9958C760.957 74.9042 763.706 65.022 759.457 54.6704C758.541 52.4963 757.291 50.2728 755.791 48.0493H753.209C754.792 50.3222 756.041 52.5457 756.958 54.7692C761.206 65.022 758.457 74.8053 748.877 83.7981C738.046 93.878 752.376 105.91 788.115 116.854C808.943 123.228 835.102 128.589 861.844 131.949C880.839 134.345 899.167 135.556 915.329 135.556C922.827 135.556 929.825 135.284 936.157 134.765C957.65 132.962 971.98 128.095 977.478 120.683C988.891 105.341 1010.3 95.9532 1041.29 92.7415C1085.45 88.171 1142.01 96.7685 1188.17 106.725V105.811C1141.68 95.8544 1085.11 87.4298 1040.46 92.025Z" fill="white"/>
<path d="M1055.37 72.4336C1028.46 74.0395 1007.97 79.3511 994.555 88.171C975.977 100.375 952.401 108.924 924.409 113.618C894.417 118.633 867.758 117.793 850.68 116.212C830.019 114.285 812.191 110.233 800.444 104.798C788.281 99.1896 783.782 92.5686 787.864 86.1699C796.279 72.8783 799.444 60.0562 797.445 48.0493H794.946C796.945 60.0068 793.779 72.7795 785.448 86.0216C781.283 92.618 785.865 99.412 798.361 105.168C810.441 110.752 828.769 114.902 850.013 116.879C858.927 117.719 868.091 118.114 877.255 118.114C893.667 118.114 910.246 116.805 925.658 114.235C954.15 109.467 978.06 100.795 996.888 88.4428C1009.97 79.8453 1029.8 74.7065 1055.87 73.1254C1077.03 71.8654 1102.44 73.0018 1129.35 76.4606C1150.43 79.1535 1171.75 83.2052 1188.17 87.6275V86.6393C1154.26 77.7947 1099.61 69.7901 1055.37 72.4336Z" fill="white"/>
<path d="M642.489 385.748C640.323 385.131 637.573 384.884 634.408 384.983C623.661 385.328 608.998 389.899 597.918 393.926H601.167C611.747 390.121 625.244 386.045 634.657 385.724C637.073 385.65 639.073 385.823 640.739 386.292C646.487 387.898 652.902 390.838 658.734 393.926H661.65C655.568 390.665 648.737 387.478 642.489 385.748Z" fill="white"/>
<path d="M1163.42 71.4454C1135.01 70.6548 1100.69 67.3937 1069.2 62.4526C1032.71 56.7209 1002.22 65.269 966.979 75.1512C940.154 82.6864 909.746 91.2098 872.09 94.2979C858.844 95.385 848.597 94.8168 841.515 92.6674C817.439 85.2805 833.601 61.0938 844.598 48.0493H842.015C838.683 52.0269 834.85 56.9927 831.851 62.1808C822.604 78.3135 825.27 88.7392 839.766 93.1862C845.014 94.7921 851.762 95.5826 859.927 95.5826C863.925 95.5826 868.174 95.385 872.84 95.0144C910.995 91.9015 941.737 83.304 968.729 75.6947C1003.3 66.0102 1033.13 57.635 1068.03 63.1197C1100.19 68.1843 1134.02 71.396 1163.17 72.1866C1172.25 72.4336 1180.59 72.4336 1188.17 72.1866V71.4454C1180.75 71.6924 1172.42 71.6924 1163.42 71.4454Z" fill="white"/>
<path d="M878.421 80.5865C879.754 80.6359 881.004 80.6606 882.337 80.6606C904.497 80.6606 929.24 73.4466 942.486 68.9502C960.065 63.0209 977.143 55.3128 989.056 48.0247H986.307C974.561 55.1398 957.815 62.6503 940.654 68.4561C916.994 76.4606 895 80.5123 878.755 79.8453C872.007 79.5735 867.591 78.6594 865.258 77.103C856.511 71.1737 880.171 57.388 898.749 48.0494H895.833C892.167 49.927 888.252 51.9528 884.503 54.0528C864.092 65.442 856.844 73.2983 863.009 77.3995C865.675 79.203 870.84 80.2653 878.421 80.5865Z" fill="white"/>
<path d="M911.747 64.2809C912.246 64.3056 912.83 64.3056 913.413 64.3056C918.411 64.3056 926.326 63.4162 937.323 59.6857C945.487 56.9434 953.318 53.2129 957.9 49.9517C958.65 49.4082 959.483 48.7412 960.233 48.0247H957.65C957.067 48.5435 956.4 49.087 955.651 49.6553C946.237 56.3752 924.743 64.0586 912.163 63.515C909.83 63.4162 908.331 63.1197 907.498 62.5762C903.249 59.7104 920.494 51.2364 927.909 48H924.909C919.578 50.3964 900.167 59.4139 905.248 62.8727C906.331 63.688 908.581 64.1574 911.747 64.2809Z" fill="white"/>
<path d="M1146.51 63.6632C1129.93 63.0455 1111.36 60.9703 1091.19 57.4868C1073.62 54.448 1057.87 50.841 1046.71 48.0493H1042.88C1054.29 50.9399 1071.03 54.868 1089.94 58.1291C1110.44 61.662 1129.35 63.7867 1146.26 64.4043C1149.76 64.5279 1153.18 64.602 1156.59 64.602C1168.34 64.602 1178.92 63.8114 1188.33 62.2303V61.3656C1176.25 63.4655 1162.34 64.2561 1146.51 63.6632Z" fill="white"/>
<path fill-rule="evenodd" clip-rule="evenodd" d="M652.403 269.657C668.315 266.89 695.89 266.816 734.379 269.46C761.955 271.362 785.448 274.03 787.364 274.253C812.107 275.611 815.189 276.822 815.023 277.711C814.856 278.922 808.191 280.577 757.872 282.801C726.631 284.184 689.392 285.321 662.233 286.136L655.485 286.334C650.57 286.482 646.154 286.556 642.155 286.556C626.91 286.556 617.996 285.469 615.663 283.344C611.414 279.515 630.992 273.388 652.403 269.657ZM757.455 282.084C806.858 279.885 812.356 278.28 812.44 277.687C812.44 277.39 810.69 276.303 786.78 274.994L786.531 274.969C786.518 274.968 786.444 274.959 786.311 274.944C783.828 274.663 760.768 272.054 733.879 270.201C719.3 269.188 701.888 268.299 686.059 268.299C673.646 268.299 662.149 268.867 653.735 270.324C643.155 272.177 633.241 274.574 626.493 276.921C619.412 279.416 616.412 281.615 618.079 283.146C620.661 285.419 633.491 286.284 655.235 285.617L661.983 285.419C663.99 285.357 666.051 285.294 668.161 285.229C694.601 284.414 728.6 283.365 757.455 282.084Z" fill="white"/>
<path fill-rule="evenodd" clip-rule="evenodd" d="M670.731 112.827C670.065 110.851 679.146 108.528 697.64 105.885C709.804 104.156 724.3 104.699 734.38 107.293C742.378 109.344 751.042 112.259 746.71 114.68C743.377 116.558 732.797 117.546 718.718 117.546C709.304 117.546 698.307 117.101 686.81 116.187C676.397 115.372 671.148 114.26 670.731 112.827ZM687.476 115.471C714.052 117.595 739.628 117.077 744.544 114.334C747.293 112.753 743.294 110.53 732.797 107.861C726.965 106.404 719.717 105.638 712.386 105.638C707.721 105.638 703.055 105.934 698.723 106.552C681.811 108.973 672.731 111.172 673.231 112.753C673.564 113.815 678.479 114.754 687.476 115.471Z" fill="white"/>
<path d="M933.407 386.267C890.003 384.637 864.51 373.717 832.352 359.882C823.355 356.028 814.024 352.026 803.527 347.875C777.201 337.474 747.71 331.224 715.969 329.297C679.896 327.123 640.241 330.482 598.169 339.278C551.932 348.937 485.035 364.477 427.635 378.905C411.556 382.957 390.562 388.343 369.984 393.926H373.65C389.979 389.529 408.557 384.686 429.217 379.473C486.534 365.07 553.349 349.53 599.502 339.895C677.897 323.516 745.877 326.357 801.445 348.345C811.858 352.47 821.189 356.473 830.186 360.327C862.76 374.31 888.503 385.329 932.99 387.009C964.565 388.194 982.643 390.517 986.975 393.926H989.641C985.559 390.097 966.647 387.527 933.407 386.267Z" fill="white"/>
<path d="M696.64 357.56C680.894 355.509 664.732 355.756 648.57 358.276C608.498 364.502 572.175 371.864 540.601 380.19C521.19 385.304 506.528 389.998 495.697 393.926H499.03C523.689 385.106 571.342 371.098 649.653 358.918C665.149 356.522 680.561 356.275 695.557 358.227C725.798 362.155 749.458 374.26 763.954 383.747C769.536 387.354 774.201 390.887 777.95 393.926H780.616C776.784 390.813 772.035 387.181 766.287 383.451C744.959 369.492 721.466 360.771 696.64 357.56Z" fill="white"/>
<path fill-rule="evenodd" clip-rule="evenodd" d="M306.751 307.679C303.835 305.9 304.335 303.331 312.5 301.898C324.746 299.749 341.491 300.737 348.073 302.417C350.905 303.133 351.905 303.973 350.822 304.764C348.656 306.444 340.325 308.173 326.162 309.878C324.08 310.125 321.997 310.248 320.081 310.248C313.916 310.248 309.084 309.063 306.751 307.679ZM325.162 309.186C338.491 307.58 346.572 305.95 348.488 304.492C349.321 303.874 347.822 303.306 346.322 302.985C342.823 302.096 335.909 301.429 328.577 301.429C323.495 301.429 318.247 301.75 313.665 302.54C306.834 303.726 306.334 305.801 308.916 307.333C311.499 308.865 317.664 310.1 325.162 309.186Z" fill="white"/>
<path fill-rule="evenodd" clip-rule="evenodd" d="M438.215 368.603C434.966 371.049 399.726 376.385 388.062 377.793C385.563 378.09 383.147 378.238 380.898 378.213C373.733 378.213 368.151 376.854 365.402 375.224C361.903 373.149 362.57 370.159 372.067 368.504C388.729 365.589 428.801 365.119 436.798 367.145C438.465 367.54 438.964 368.059 438.215 368.603ZM373.317 369.146C365.152 370.579 364.569 373.074 367.651 374.903C370.734 376.731 378.065 378.213 387.063 377.101C401.808 375.298 433.216 370.258 435.799 368.331C436.049 368.158 436.132 367.96 435.132 367.713C427.968 365.91 388.562 366.478 373.317 369.146Z" fill="white"/>
<path d="M89.73 65.022C103.226 62.2797 98.8107 53.5586 94.312 48.0493H91.7294C92.8958 49.4328 93.9788 51.0387 94.8952 52.7186C97.0612 56.9927 97.7277 62.502 88.397 64.429C77.4002 66.6525 55.0732 63.7373 21.916 55.7574V56.6962C47.4921 62.7985 66.9032 65.862 79.8995 65.862C83.7317 65.862 86.9808 65.5655 89.73 65.022Z" fill="white"/>
<path fill-rule="evenodd" clip-rule="evenodd" d="M583.839 228.671C571.592 228.671 558.513 228.301 549.182 227.238C535.853 225.756 535.103 223.483 537.019 221.852C538.935 220.098 542.851 218.814 548.765 218.048C559.346 216.689 576.008 217.01 598.251 219.036C614.663 220.543 628.243 222.445 628.409 222.47C635.407 223.508 635.657 224.496 634.741 225.138C631.992 226.991 614.663 228.078 599.418 228.473C594.669 228.597 589.337 228.671 583.839 228.671ZM549.683 218.74C544.434 219.407 540.935 220.543 539.269 222.099C537.186 224.002 540.769 225.509 550.099 226.571C561.096 227.806 579.924 228.251 599.169 227.757C616.914 227.288 630.576 226.102 632.409 224.866C633.326 224.224 630.076 223.582 627.244 223.162C626.411 223.038 590.255 217.998 564.262 217.998C558.847 217.998 553.848 218.196 549.683 218.74Z" fill="white"/>
</g>
</g>
</g>
<defs>
<filter id="filter0_d_213_11820" x="0" y="0" width="1249" height="454" filterUnits="userSpaceOnUse" color-interpolation-filters="sRGB">
<feFlood flood-opacity="0" result="BackgroundImageFix"/>
<feColorMatrix in="SourceAlpha" type="matrix" values="0 0 0 0 0 0 0 0 0 0 0 0 0 0 0 0 0 0 127 0" result="hardAlpha"/>
<feOffset dx="6" dy="6"/>
<feGaussianBlur stdDeviation="27"/>
<feColorMatrix type="matrix" values="0 0 0 0 0 0 0 0 0 0 0 0 0 0 0 0 0 0 0.05 0"/>
<feBlend mode="normal" in2="BackgroundImageFix" result="effect1_dropShadow_213_11820"/>
<feBlend mode="normal" in="SourceGraphic" in2="effect1_dropShadow_213_11820" result="shape"/>
</filter>
</defs>
</svg>
