<svg width="126" height="19" viewBox="0 0 126 19" fill="none" xmlns="http://www.w3.org/2000/svg">
<path opacity="0.2" fill-rule="evenodd" clip-rule="evenodd" d="M80 12.88L75.2977 16.4721L77.261 10.89L72.3915 7.52786L78.3072 7.67003L80 2L81.6928 7.67003L87.6085 7.52786L82.739 10.89L84.7023 16.4721L80 12.88Z" fill="black"/>
<path fill-rule="evenodd" clip-rule="evenodd" d="M62 12.88L57.2977 16.4721L59.261 10.89L54.3915 7.52786L60.3072 7.67003L62 2L63.6928 7.67003L69.6085 7.52786L64.739 10.89L66.7023 16.4721L62 12.88Z" fill="#FF9500"/>
<path fill-rule="evenodd" clip-rule="evenodd" d="M44 12.88L39.2977 16.4721L41.261 10.89L36.3915 7.52786L42.3072 7.67003L44 2L45.6928 7.67003L51.6085 7.52786L46.739 10.89L48.7023 16.4721L44 12.88Z" fill="#FF9500"/>
<path fill-rule="evenodd" clip-rule="evenodd" d="M26 12.88L21.2977 16.4721L23.261 10.89L18.3915 7.52786L24.3072 7.67003L26 2L27.6928 7.67003L33.6085 7.52786L28.739 10.89L30.7023 16.4721L26 12.88Z" fill="#FF9500"/>
<path fill-rule="evenodd" clip-rule="evenodd" d="M8 12.88L3.29772 16.4721L5.26096 10.89L0.391548 7.52786L6.30718 7.67003L8 2L9.69282 7.67003L15.6085 7.52786L10.739 10.89L12.7023 16.4721L8 12.88Z" fill="#FF9500"/>
<path opacity="0.4" d="M95.22 16.716C94.5853 15.68 94.1233 14.63 93.834 13.566C93.554 12.502 93.414 11.4193 93.414 10.318C93.414 9.20733 93.554 8.12467 93.834 7.07C94.1233 6.006 94.5853 4.956 95.22 3.92L96.214 4.312C95.9153 5.012 95.668 5.69333 95.472 6.356C95.2853 7.00933 95.1453 7.66267 95.052 8.316C94.968 8.96933 94.926 9.63667 94.926 10.318C94.926 10.9993 94.968 11.6667 95.052 12.32C95.1453 12.9733 95.2853 13.6267 95.472 14.28C95.668 14.9333 95.9153 15.6147 96.214 16.324L95.22 16.716ZM98.1745 14V12.782H100.414V5.362H101.142L98.6645 6.902L98.0765 5.824L100.834 4.13H101.856V12.782H103.956V14H98.1745ZM108.81 14.126C108.372 14.126 107.942 14.084 107.522 14C107.112 13.9067 106.724 13.776 106.36 13.608C106.006 13.4307 105.693 13.2207 105.422 12.978L105.926 11.858C106.365 12.2127 106.818 12.474 107.284 12.642C107.751 12.81 108.246 12.894 108.768 12.894C109.216 12.894 109.594 12.8287 109.902 12.698C110.21 12.5673 110.439 12.376 110.588 12.124C110.747 11.872 110.826 11.5687 110.826 11.214C110.826 10.682 110.649 10.2853 110.294 10.024C109.949 9.75333 109.445 9.618 108.782 9.618H107.256V8.4H108.642C109.044 8.4 109.384 8.33467 109.664 8.204C109.944 8.064 110.159 7.87267 110.308 7.63C110.467 7.378 110.546 7.07467 110.546 6.72C110.546 6.244 110.388 5.88 110.07 5.628C109.762 5.36667 109.31 5.236 108.712 5.236C108.208 5.236 107.742 5.32467 107.312 5.502C106.883 5.67933 106.477 5.95 106.094 6.314L105.59 5.208C105.973 4.82533 106.449 4.53133 107.018 4.326C107.597 4.11133 108.199 4.004 108.824 4.004C109.478 4.004 110.038 4.10667 110.504 4.312C110.98 4.51733 111.34 4.81133 111.582 5.194C111.834 5.57667 111.96 6.034 111.96 6.566C111.96 7.16333 111.792 7.68133 111.456 8.12C111.13 8.54933 110.677 8.834 110.098 8.974V8.82C110.556 8.89467 110.943 9.044 111.26 9.268C111.578 9.492 111.82 9.77667 111.988 10.122C112.156 10.4673 112.24 10.864 112.24 11.312C112.24 11.8907 112.1 12.3947 111.82 12.824C111.55 13.244 111.158 13.566 110.644 13.79C110.131 14.014 109.52 14.126 108.81 14.126ZM114.63 14V12.782H116.87V5.362H117.598L115.12 6.902L114.532 5.824L117.29 4.13H118.312V12.782H120.412V14H114.63ZM122.704 16.716L121.71 16.324C122.009 15.6053 122.251 14.9147 122.438 14.252C122.625 13.5987 122.76 12.95 122.844 12.306C122.937 11.6527 122.984 10.99 122.984 10.318C122.984 9.646 122.937 8.988 122.844 8.344C122.76 7.69067 122.625 7.03267 122.438 6.37C122.251 5.70733 122.009 5.02133 121.71 4.312L122.704 3.92C123.339 4.956 123.796 6.006 124.076 7.07C124.365 8.134 124.51 9.21667 124.51 10.318C124.51 11.4193 124.365 12.502 124.076 13.566C123.796 14.63 123.339 15.68 122.704 16.716Z" fill="black"/>
</svg>
